<?xml version="1.0" encoding="utf-8"?>
<!-- Generator: Adobe Illustrator 25.2.3, SVG Export Plug-In . SVG Version: 6.00 Build 0)  -->
<svg version="1.1" id="Lager_1" xmlns="http://www.w3.org/2000/svg" xmlns:xlink="http://www.w3.org/1999/xlink" x="0px" y="0px"
	 viewBox="0 0 800 754" style="enable-background:new 0 0 800 754;" xml:space="preserve">
<style type="text/css">
	.st0{fill:#999999;}
	.st1{fill:none;stroke:#404040;stroke-width:4;stroke-linecap:round;stroke-linejoin:round;stroke-miterlimit:10;}
	.st2{fill:#FFFFFF;stroke:#404040;stroke-width:4;stroke-linecap:round;stroke-linejoin:round;stroke-miterlimit:10;}
	.st3{fill:#59AFE1;stroke:#404040;stroke-width:4;stroke-linejoin:round;stroke-miterlimit:10;}
	.st4{fill:#404040;}
	.st5{fill:none;stroke:#CCCCCC;stroke-linecap:round;stroke-linejoin:round;stroke-miterlimit:10;}
	.st6{fill:#B3E3FF;stroke:#404040;stroke-width:4;stroke-linecap:round;stroke-linejoin:round;stroke-miterlimit:10;}
	.st7{fill:#414141;}
</style>
<path class="st0" d="M342.8,463.8H338l-1.1,3h-1.6l4.2-10.6h1.7l4.2,10.6h-1.6L342.8,463.8L342.8,463.8z M338.6,462.4h3.7l-1.8-4.8
	L338.6,462.4L338.6,462.4z M347.5,466.8v-7.2h1.3v1c0.5-0.8,1.4-1.2,2.2-1.2c0.9,0,1.8,0.4,2.2,1.4c0.6-1,1.5-1.4,2.4-1.4
	c1.3,0,2.5,0.9,2.5,2.7v4.7h-1.4v-4.5c0-0.9-0.5-1.6-1.5-1.6s-1.7,0.8-1.7,1.8v4.4h-1.4v-4.5c0-0.9-0.5-1.6-1.5-1.6
	s-1.7,0.8-1.7,1.8v4.3L347.5,466.8L347.5,466.8z M367.4,464.7c-0.4,1.3-1.6,2.3-3.2,2.3c-1.9,0-3.6-1.4-3.6-3.9
	c0-2.3,1.6-3.8,3.5-3.8c2.2,0,3.5,1.5,3.5,3.8v0.4H362c0,1.3,1,2.2,2.2,2.2s1.8-0.6,2-1.5L367.4,464.7z M366,462.4
	c0-1-0.7-1.8-2-1.8c-1.2,0-1.9,0.9-2,1.8H366z M371.4,466.8H370v-7.2h1.4v1c0.5-0.9,1.4-1.2,2.2-1.2c1.7,0,2.6,1.2,2.6,2.9v4.6h-1.4
	v-4.3c0-1-0.4-1.8-1.7-1.8c-1.1,0-1.7,0.9-1.7,2V466.8z M384.2,465.7c-0.3,0.7-1.1,1.3-2.2,1.3c-2.1,0-3.4-1.7-3.4-3.8
	c0-2,1.4-3.8,3.4-3.8c1.3,0,2,0.6,2.2,1.2v-4.7h1.4v9.5c0,0.7,0.1,1.2,0.1,1.3h-1.4C384.3,466.5,384.2,466.2,384.2,465.7z
	 M382.1,465.7c1.3,0,2.1-1.1,2.1-2.6s-0.8-2.5-2.1-2.5s-2.1,1-2.1,2.5S380.8,465.7,382.1,465.7z M395,464.7
	c-0.4,1.3-1.6,2.3-3.2,2.3c-1.9,0-3.6-1.4-3.6-3.9c0-2.3,1.6-3.8,3.5-3.8c2.2,0,3.5,1.5,3.5,3.8v0.4h-5.4c0,1.3,1,2.2,2.2,2.2
	s1.8-0.6,2-1.5L395,464.7z M393.6,462.4c0-1-0.7-1.8-2-1.8c-1.2,0-1.9,0.9-2,1.8H393.6z M402.7,465.7c-0.3,0.7-1.1,1.3-2.2,1.3
	c-2.1,0-3.4-1.7-3.4-3.8c0-2,1.4-3.8,3.4-3.8c1.3,0,2,0.6,2.2,1.2v-4.7h1.4v9.5c0,0.7,0.1,1.2,0.1,1.3h-1.4
	C402.8,466.5,402.7,466.2,402.7,465.7z M400.6,465.7c1.3,0,2.1-1.1,2.1-2.6s-0.8-2.5-2.1-2.5s-2.1,1-2.1,2.5
	S399.2,465.7,400.6,465.7z M418.8,466.8v-4.7h-5.4v4.7h-1.5v-10.6h1.5v4.5h5.4v-4.5h1.5v10.6H418.8z M424.2,455.8c0.6,0,1,0.4,1,1
	s-0.4,1-1,1s-1-0.5-1-1S423.7,455.8,424.2,455.8z M423.5,466.8v-7.2h1.4v7.2H423.5z M428.7,464.5c0.1,0.8,0.7,1.3,1.7,1.3
	c0.8,0,1.2-0.4,1.2-1c0-0.4-0.3-0.8-0.9-0.9l-1.2-0.3c-1.1-0.2-1.8-1-1.8-2c0-1.2,1.2-2.3,2.6-2.3c2,0,2.6,1.3,2.7,1.9l-1.2,0.5
	c-0.1-0.4-0.4-1.2-1.5-1.2c-0.7,0-1.2,0.5-1.2,1c0,0.4,0.3,0.8,0.8,0.9l1.2,0.3c1.3,0.3,2,1.1,2,2.1s-0.9,2.2-2.6,2.2
	c-2,0-2.8-1.3-2.9-2.1L428.7,464.5L428.7,464.5z M437.5,459.6h1.6v1.3h-1.6v3.8c0,0.7,0.3,1,1,1c0.2,0,0.4,0,0.6-0.1v1.2
	c-0.1,0-0.5,0.1-1,0.1c-1.2,0-2-0.8-2-2.1v-4h-1.4v-1.3h0.4c0.8,0,1.1-0.5,1.1-1.1v-1.2h1.3V459.6L437.5,459.6z M448.4,463.2
	c0,2.2-1.5,3.8-3.7,3.8s-3.7-1.6-3.7-3.8c0-2.2,1.5-3.8,3.7-3.8S448.4,461,448.4,463.2z M446.9,463.2c0-1.7-1.1-2.6-2.2-2.6
	c-1.2,0-2.2,0.9-2.2,2.6s1,2.6,2.2,2.6C445.9,465.7,446.9,464.8,446.9,463.2z M454.9,461h-0.6c-1.2,0-2,0.6-2,2.2v3.6h-1.4v-7.2h1.4
	v1.3c0.5-1.1,1.4-1.4,2.2-1.4h0.5v1.5H454.9z M457.7,469.8l1.8-3.8l-3.1-6.4h1.6l2.2,5l2.2-5h1.5l-4.7,10.2L457.7,469.8L457.7,469.8
	z"/>
<path class="st1" d="M551.4,624.8v-23.5 M562.2,616.1L551.3,627l-10.8-10.9"/>
<path class="st2" d="M242.6,668h287.8"/>
<circle class="st2" cx="221.6" cy="668" r="21"/>
<circle class="st2" cx="331.5" cy="668" r="21"/>
<circle class="st2" cx="441.4" cy="668" r="21"/>
<circle class="st3" cx="551.4" cy="668" r="21"/>
<path class="st2" d="M544.8,668h13 M546.8,663.4l9.1,9.2 M555.9,663.4l-9.1,9.2 M551.3,661.5v13"/>
<path class="st4" d="M342.3,732.4c2,0,3.2,1.2,3.2,2.9c0,1.1-0.7,2-1.6,2.3c1.2,0.3,1.9,1.4,1.9,2.6c0,1.7-1.3,2.9-3.3,2.9h-3.7
	v-10.6h3.5V732.4z M342.2,737.1c1.2,0,1.9-0.7,1.9-1.7s-0.7-1.7-2-1.7h-1.8v3.4H342.2z M342.4,741.8c1.2,0,2-0.7,2-1.7
	s-0.6-1.7-1.9-1.7h-2.1v3.4H342.4z M352.4,737.3h-0.6c-1.2,0-2,0.6-2,2.2v3.6h-1.4v-7.2h1.4v1.3c0.5-1.1,1.4-1.4,2.2-1.4h0.5v1.5
	L352.4,737.3z M356.4,738.9l2-0.3c0.4-0.1,0.6-0.3,0.6-0.5c0-0.7-0.5-1.3-1.6-1.3c-1,0-1.5,0.6-1.6,1.5l-1.3-0.3
	c0.1-1.4,1.4-2.3,3-2.3c2.2,0,3,1.2,3,2.6v3.6c0,0.6,0.1,1,0.1,1.2H359c0-0.2-0.1-0.5-0.1-1c-0.3,0.5-1,1.2-2.3,1.2
	c-1.5,0-2.4-1-2.4-2.2C354.2,739.8,355.2,739.1,356.4,738.9L356.4,738.9z M358.9,740v-0.3l-2.2,0.3c-0.6,0.1-1.1,0.4-1.1,1.1
	c0,0.5,0.5,1,1.2,1C358,742.1,358.9,741.5,358.9,740z M364.7,743.1h-1.4v-7.2h1.4v1c0.5-0.9,1.4-1.2,2.2-1.2c1.7,0,2.6,1.2,2.6,2.9
	v4.6H368v-4.3c0-1-0.4-1.8-1.7-1.8c-1.1,0-1.7,0.9-1.7,2v4H364.7z M377.5,742c-0.3,0.7-1.1,1.3-2.2,1.3c-2.1,0-3.4-1.7-3.4-3.8
	c0-2,1.4-3.8,3.4-3.8c1.3,0,2,0.6,2.2,1.2v-4.7h1.4v9.5c0,0.7,0.1,1.2,0.1,1.3h-1.4C377.6,742.8,377.5,742.5,377.5,742z M375.4,742
	c1.3,0,2.1-1.1,2.1-2.6s-0.8-2.5-2.1-2.5s-2.1,1-2.1,2.5S374.1,742,375.4,742z M393.9,743.1l-5.7-8.7v8.7h-1.5v-10.6h2l5.3,8.2v-8.2
	h1.5v10.6H393.9L393.9,743.1z M405,741c-0.4,1.3-1.6,2.3-3.2,2.3c-1.9,0-3.6-1.4-3.6-3.9c0-2.3,1.6-3.8,3.5-3.8
	c2.2,0,3.5,1.5,3.5,3.8v0.4h-5.4c0,1.3,1,2.2,2.2,2.2s1.8-0.6,2-1.5L405,741z M403.6,738.7c0-1-0.7-1.8-2-1.8c-1.2,0-1.9,0.9-2,1.8
	H403.6z M413,735.8l1.9,5.4l1.6-5.4h1.5l-2.3,7.2h-1.5l-1.9-5.5l-1.9,5.5h-1.5l-2.4-7.2h1.5l1.6,5.4l1.9-5.4H413L413,735.8z
	 M424.1,737.7c0-3.6,2.6-5.5,5.3-5.5c2.4,0,4.1,1.3,4.7,3.4l-1.4,0.5c-0.4-1.6-1.6-2.5-3.3-2.5c-1.9,0-3.8,1.4-3.8,4.2
	s1.8,4.2,3.8,4.2c1.8,0,3-1.1,3.4-2.5l1.3,0.5c-0.6,2-2.2,3.4-4.7,3.4C426.7,743.3,424.1,741.3,424.1,737.7L424.1,737.7z
	 M443.2,739.4c0,2.2-1.5,3.8-3.7,3.8s-3.7-1.6-3.7-3.8s1.5-3.8,3.7-3.8S443.2,737.2,443.2,739.4z M441.7,739.4c0-1.7-1-2.6-2.2-2.6
	s-2.2,0.9-2.2,2.6c0,1.7,1,2.6,2.2,2.6S441.7,741.1,441.7,739.4z M445.7,743.1v-7.2h1.3v1c0.5-0.8,1.4-1.2,2.2-1.2
	c0.9,0,1.8,0.4,2.2,1.4c0.6-1,1.5-1.4,2.4-1.4c1.3,0,2.5,0.9,2.5,2.7v4.7h-1.4v-4.5c0-0.9-0.5-1.6-1.5-1.6s-1.7,0.8-1.7,1.8v4.4
	h-1.4v-4.5c0-0.9-0.5-1.6-1.5-1.6s-1.7,0.8-1.7,1.8v4.3h-1.4V743.1z M459.3,743.1v-7.2h1.3v1c0.5-0.8,1.4-1.2,2.2-1.2
	c0.9,0,1.8,0.4,2.2,1.4c0.6-1,1.5-1.4,2.4-1.4c1.3,0,2.5,0.9,2.5,2.7v4.7h-1.4v-4.5c0-0.9-0.5-1.6-1.5-1.6s-1.7,0.8-1.7,1.8v4.4
	h-1.4v-4.5c0-0.9-0.5-1.6-1.5-1.6s-1.7,0.8-1.7,1.8v4.3h-1.4V743.1z M473.6,732.1c0.6,0,1,0.4,1,1s-0.5,1-1,1c-0.6,0-1-0.5-1-1
	C472.6,732.5,473,732.1,473.6,732.1z M472.9,743.1v-7.2h1.4v7.2H472.9z M479.3,735.8h1.6v1.3h-1.6v3.8c0,0.7,0.3,1,1,1
	c0.2,0,0.4,0,0.6-0.1v1.2c-0.1,0-0.5,0.1-1,0.1c-1.2,0-2-0.8-2-2.1v-4h-1.4v-1.3h0.4c0.8,0,1.1-0.5,1.1-1.1v-1.2h1.3V735.8
	L479.3,735.8z M484.2,740.7c0.1,0.8,0.7,1.3,1.7,1.3c0.8,0,1.2-0.4,1.2-1c0-0.4-0.3-0.8-0.9-0.9l-1.2-0.3c-1.1-0.2-1.8-1-1.8-2
	c0-1.2,1.2-2.3,2.6-2.3c2,0,2.6,1.3,2.7,1.9l-1.2,0.5c-0.1-0.4-0.4-1.2-1.5-1.2c-0.7,0-1.2,0.5-1.2,1c0,0.4,0.3,0.8,0.8,0.9l1.2,0.3
	c1.3,0.3,2,1.1,2,2.1s-0.9,2.2-2.6,2.2c-2,0-2.8-1.3-2.9-2.1L484.2,740.7L484.2,740.7z"/>
<path class="st2" d="M310.1,737.6h13 M312,733l9.2,9.1 M321.2,733l-9.2,9.1 M316.6,731.1v13"/>
<path class="st0" d="M350.7,20.7V10.1h1.5v10.6H350.7z M356.9,20.7h-1.4v-7.2h1.4v1c0.5-0.9,1.4-1.2,2.2-1.2c1.7,0,2.6,1.2,2.6,2.8
	v4.6h-1.4v-4.3c0-1-0.4-1.8-1.7-1.8c-1.1,0-1.7,0.9-1.7,2C356.9,16.6,356.9,20.7,356.9,20.7z M365.4,9.8c0.6,0,1,0.5,1,1
	c0,0.6-0.5,1-1,1c-0.6,0-1-0.5-1-1C364.4,10.2,364.8,9.8,365.4,9.8z M364.7,20.7v-7.2h1.4v7.2H364.7z M371.1,13.5h1.6v1.3h-1.6v3.8
	c0,0.7,0.3,1,1,1c0.2,0,0.4,0,0.6-0.1v1.2c-0.1,0-0.5,0.1-1,0.1c-1.2,0-2-0.8-2-2.1v-4h-1.4v-1.3h0.4c0.8,0,1.1-0.5,1.1-1.1v-1.2
	h1.3C371.1,11.1,371.1,13.5,371.1,13.5z M376,9.8c0.6,0,1,0.5,1,1c0,0.6-0.5,1-1,1c-0.6,0-1-0.5-1-1C375,10.2,375.5,9.8,376,9.8z
	 M375.3,20.7v-7.2h1.4v7.2H375.3z M381.6,16.6l2-0.3c0.4-0.1,0.6-0.3,0.6-0.5c0-0.7-0.5-1.3-1.6-1.3c-1,0-1.5,0.6-1.6,1.5l-1.3-0.3
	c0.2-1.4,1.4-2.3,3-2.3c2.2,0,3,1.2,3,2.6v3.6c0,0.6,0.1,1,0.1,1.2h-1.4c0-0.2-0.1-0.5-0.1-1c-0.3,0.5-1,1.2-2.3,1.2
	c-1.5,0-2.4-1-2.4-2.2C379.4,17.5,380.4,16.8,381.6,16.6L381.6,16.6z M384.1,17.6v-0.3l-2.2,0.3c-0.6,0.1-1,0.4-1,1.1
	c0,0.5,0.5,1,1.2,1C383.2,19.8,384.1,19.2,384.1,17.6z M388.5,20.7V9.9h1.4v10.9L388.5,20.7L388.5,20.7z M404.6,20.7V16h-5.4v4.7
	h-1.5V10.1h1.5v4.5h5.4v-4.5h1.5v10.6H404.6z M410,9.8c0.6,0,1,0.5,1,1c0,0.6-0.5,1-1,1c-0.6,0-1-0.5-1-1
	C409,10.2,409.5,9.8,410,9.8z M409.3,20.7v-7.2h1.4v7.2H409.3z M414.5,18.4c0.1,0.8,0.7,1.3,1.7,1.3c0.8,0,1.2-0.4,1.2-1
	c0-0.4-0.3-0.8-0.9-0.9l-1.2-0.3c-1.1-0.2-1.8-1-1.8-2c0-1.2,1.2-2.3,2.6-2.3c2,0,2.6,1.3,2.7,1.9l-1.2,0.5
	c-0.1-0.4-0.4-1.2-1.5-1.2c-0.7,0-1.2,0.5-1.2,1c0,0.4,0.3,0.8,0.8,0.9l1.2,0.3c1.3,0.3,2,1.1,2,2.1s-0.9,2.2-2.6,2.2
	c-2,0-2.8-1.3-2.9-2.1L414.5,18.4L414.5,18.4z M423.3,13.5h1.6v1.3h-1.6v3.8c0,0.7,0.3,1,1,1c0.2,0,0.4,0,0.6-0.1v1.2
	c-0.1,0-0.5,0.1-1,0.1c-1.2,0-2-0.8-2-2.1v-4h-1.4v-1.3h0.4c0.8,0,1.1-0.5,1.1-1.1v-1.2h1.3V13.5z M434.2,17.1
	c0,2.2-1.5,3.8-3.7,3.8s-3.7-1.6-3.7-3.8s1.5-3.8,3.7-3.8S434.2,14.9,434.2,17.1z M432.8,17.1c0-1.7-1.1-2.6-2.2-2.6
	c-1.2,0-2.2,0.9-2.2,2.6s1,2.6,2.2,2.6C431.7,19.7,432.8,18.8,432.8,17.1z M440.8,14.9h-0.6c-1.2,0-2,0.6-2,2.2v3.6h-1.4v-7.2h1.4
	v1.3c0.5-1.1,1.4-1.4,2.2-1.4h0.5v1.5L440.8,14.9z M443.5,23.7l1.8-3.8l-3.1-6.4h1.6l2.2,5l2.2-5h1.5L445,23.7
	C445,23.7,443.5,23.7,443.5,23.7z"/>
<path class="st1" d="M551.4,187v-23.5 M562.2,178.3l-10.9,10.8l-10.8-10.8"/>
<path class="st2" d="M242.6,230.1h287.8"/>
<circle class="st2" cx="221.6" cy="230.1" r="21"/>
<circle class="st2" cx="331.5" cy="230.1" r="21"/>
<circle class="st2" cx="441.4" cy="230.1" r="21"/>
<circle class="st3" cx="551.4" cy="230.1" r="21"/>
<path class="st5" d="M129.3,353.1h541.4"/>
<g>
	<path class="st6" d="M503.1,92.6h96.2v50h-96.2V92.6z"/>
	<g>
		<path class="st7" d="M536,123.7v-10h2l2.4,7.1c0.2,0.7,0.4,1.2,0.5,1.5c0.1-0.4,0.3-0.9,0.5-1.6l2.4-7h1.8v10h-1.3v-8.4l-2.9,8.4
			h-1.2l-2.9-8.5v8.5H536z"/>
		<path class="st7" d="M553,122.8c-0.5,0.4-0.9,0.7-1.3,0.8c-0.4,0.2-0.9,0.2-1.4,0.2c-0.8,0-1.4-0.2-1.8-0.6
			c-0.4-0.4-0.6-0.9-0.6-1.5c0-0.4,0.1-0.7,0.2-1c0.2-0.3,0.4-0.5,0.6-0.7c0.3-0.2,0.6-0.3,0.9-0.4c0.2-0.1,0.6-0.1,1.1-0.2
			c1-0.1,1.7-0.3,2.2-0.4c0-0.2,0-0.3,0-0.3c0-0.5-0.1-0.9-0.3-1.1c-0.3-0.3-0.8-0.4-1.4-0.4c-0.6,0-1,0.1-1.3,0.3
			c-0.3,0.2-0.5,0.6-0.6,1.1l-1.2-0.2c0.1-0.5,0.3-0.9,0.5-1.2c0.3-0.3,0.6-0.6,1.1-0.7c0.5-0.2,1-0.3,1.6-0.3s1.1,0.1,1.5,0.2
			s0.7,0.3,0.9,0.6c0.2,0.2,0.3,0.5,0.4,0.8c0,0.2,0.1,0.6,0.1,1.1v1.6c0,1.1,0,1.9,0.1,2.2s0.2,0.6,0.3,0.9h-1.3
			C553.1,123.5,553,123.2,553,122.8z M552.9,120.1c-0.4,0.2-1.1,0.3-2,0.5c-0.5,0.1-0.9,0.2-1.1,0.2c-0.2,0-0.4,0.2-0.5,0.4
			c-0.1,0.2-0.2,0.4-0.2,0.6c0,0.3,0.1,0.6,0.4,0.8c0.2,0.2,0.6,0.3,1.1,0.3s0.9-0.1,1.3-0.3c0.4-0.2,0.6-0.5,0.8-0.9
			c0.1-0.3,0.2-0.7,0.2-1.2V120.1L552.9,120.1z"/>
		<path class="st7" d="M556.7,115.1v-1.4h1.2v1.4H556.7z M556.7,123.7v-7.3h1.2v7.3H556.7z"/>
		<path class="st7" d="M560.5,123.7v-7.3h1.1v1c0.5-0.8,1.3-1.2,2.3-1.2c0.4,0,0.8,0.1,1.2,0.2c0.4,0.2,0.6,0.4,0.8,0.6
			s0.3,0.6,0.4,0.9c0,0.2,0.1,0.6,0.1,1.2v4.5h-1.2v-4.4c0-0.5,0-0.9-0.1-1.1s-0.3-0.4-0.5-0.6c-0.2-0.1-0.5-0.2-0.9-0.2
			c-0.5,0-1,0.2-1.4,0.5s-0.6,1-0.6,1.9v4H560.5L560.5,123.7z"/>
	</g>
</g>
<g>
	<path class="st6" d="M503.1,530.4h96.2v50h-96.2V530.4z"/>
	<g>
		<path class="st7" d="M536,561.5v-10h2l2.4,7.1c0.2,0.7,0.4,1.2,0.5,1.5c0.1-0.4,0.3-0.9,0.5-1.6l2.4-7h1.8v10h-1.3v-8.4l-2.9,8.4
			h-1.2l-2.9-8.5v8.5H536z"/>
		<path class="st7" d="M553,560.6c-0.5,0.4-0.9,0.7-1.3,0.8c-0.4,0.2-0.9,0.2-1.4,0.2c-0.8,0-1.4-0.2-1.8-0.6
			c-0.4-0.4-0.6-0.9-0.6-1.5c0-0.4,0.1-0.7,0.2-1c0.2-0.3,0.4-0.5,0.6-0.7c0.3-0.2,0.6-0.3,0.9-0.4c0.2-0.1,0.6-0.1,1.1-0.2
			c1-0.1,1.7-0.3,2.2-0.4c0-0.2,0-0.3,0-0.3c0-0.5-0.1-0.9-0.3-1.1c-0.3-0.3-0.8-0.4-1.4-0.4c-0.6,0-1,0.1-1.3,0.3s-0.5,0.6-0.6,1.1
			l-1.2-0.2c0.1-0.5,0.3-0.9,0.5-1.2c0.3-0.3,0.6-0.6,1.1-0.7c0.5-0.2,1-0.3,1.6-0.3s1.1,0.1,1.5,0.2c0.4,0.1,0.7,0.3,0.9,0.6
			c0.2,0.2,0.3,0.5,0.4,0.8c0,0.2,0.1,0.6,0.1,1.1v1.6c0,1.1,0,1.9,0.1,2.2s0.2,0.6,0.3,0.9h-1.3C553.1,561.3,553,561,553,560.6z
			 M552.9,557.9c-0.4,0.2-1.1,0.3-2,0.5c-0.5,0.1-0.9,0.2-1.1,0.2c-0.2,0-0.4,0.2-0.5,0.4c-0.1,0.2-0.2,0.4-0.2,0.6
			c0,0.3,0.1,0.6,0.4,0.8c0.2,0.2,0.6,0.3,1.1,0.3s0.9-0.1,1.3-0.3c0.4-0.2,0.6-0.5,0.8-0.9c0.1-0.3,0.2-0.7,0.2-1.2V557.9
			L552.9,557.9z"/>
		<path class="st7" d="M556.7,552.9v-1.4h1.2v1.4H556.7z M556.7,561.5v-7.3h1.2v7.3H556.7z"/>
		<path class="st7" d="M560.5,561.5v-7.3h1.1v1c0.5-0.8,1.3-1.2,2.3-1.2c0.4,0,0.8,0.1,1.2,0.2c0.4,0.2,0.6,0.4,0.8,0.6
			c0.2,0.2,0.3,0.6,0.4,0.9c0,0.2,0.1,0.6,0.1,1.2v4.5h-1.2V557c0-0.5,0-0.9-0.1-1.1s-0.3-0.4-0.5-0.6c-0.2-0.1-0.5-0.2-0.9-0.2
			c-0.5,0-1,0.2-1.4,0.5c-0.4,0.3-0.6,1-0.6,1.9v4H560.5L560.5,561.5z"/>
	</g>
</g>
</svg>
