<?xml version="1.0" encoding="utf-8"?>
<!-- Generator: Adobe Illustrator 25.2.3, SVG Export Plug-In . SVG Version: 6.00 Build 0)  -->
<svg version="1.1" id="Lager_1" xmlns="http://www.w3.org/2000/svg" xmlns:xlink="http://www.w3.org/1999/xlink" x="0px" y="0px"
	 viewBox="0 0 800 295" style="enable-background:new 0 0 800 295;" xml:space="preserve">
<style type="text/css">
	.st0{fill:#B18BE8;stroke:#404040;stroke-width:4;stroke-linecap:round;stroke-linejoin:round;stroke-miterlimit:10;}
	.st1{fill:#404040;}
	.st2{fill:none;stroke:#404040;stroke-width:4;stroke-linecap:round;stroke-linejoin:round;stroke-miterlimit:10;}
	.st3{fill:#FFFFFF;stroke:#404040;stroke-width:4;stroke-linecap:round;stroke-linejoin:round;stroke-miterlimit:10;}
	.st4{fill:#59AFE1;stroke:#404040;stroke-width:4;stroke-linejoin:round;stroke-miterlimit:10;}
	.st5{fill:#B3E3FF;stroke:#404040;stroke-width:4;stroke-linecap:round;stroke-linejoin:round;stroke-miterlimit:10;}
	.st6{fill:#414141;}
</style>
<path class="st0" d="M444.4,235h174.7v50H444.4L444.4,235z"/>
<path class="st1" d="M466.7,260.7c0-3.6,2.6-5.5,5.3-5.5c2.4,0,4.1,1.3,4.7,3.4l-1.4,0.5c-0.4-1.6-1.6-2.5-3.3-2.5
	c-1.9,0-3.8,1.4-3.8,4.2c0,2.8,1.8,4.2,3.8,4.2c1.8,0,3-1.1,3.4-2.5l1.3,0.5c-0.6,2-2.2,3.4-4.7,3.4
	C469.2,266.2,466.7,264.2,466.7,260.7z M483,260.2h-0.6c-1.2,0-2,0.6-2,2.2v3.6H479v-7.2h1.4v1.3c0.5-1.1,1.4-1.4,2.2-1.4h0.5v1.5
	H483z M487,261.9l1.9-0.3c0.4-0.1,0.6-0.3,0.6-0.5c0-0.7-0.5-1.3-1.6-1.3c-1,0-1.5,0.6-1.6,1.5l-1.4-0.3c0.2-1.4,1.4-2.3,3-2.3
	c2.2,0,3,1.2,3,2.6v3.6c0,0.6,0.1,1,0.1,1.2h-1.4c0-0.2-0.1-0.5-0.1-1c-0.3,0.5-1,1.2-2.3,1.2c-1.5,0-2.4-1-2.4-2.2
	C484.8,262.8,485.7,262,487,261.9L487,261.9z M489.5,262.9v-0.3l-2.2,0.3c-0.6,0.1-1,0.4-1,1.1c0,0.5,0.4,1,1.2,1
	C488.6,265,489.5,264.5,489.5,262.9z M493.2,266v-1.2l4-4.7h-3.9v-1.3h5.7v1.2l-4,4.7h4v1.3H493.2L493.2,266z M501.8,269l1.8-3.8
	l-3.1-6.4h1.6l2.2,5l2.2-5h1.5l-4.7,10.2L501.8,269L501.8,269z M514.8,266v-10.6h6.5v1.4h-5v3.3h4.5v1.4h-4.5v3.3h5v1.4h-6.5V266z
	 M525.8,262.3l-2.6-3.5h1.7l1.8,2.5l1.7-2.5h1.7l-2.6,3.5c0.4,0.6,2.2,3.1,2.7,3.7h-1.7l-1.9-2.7l-1.8,2.7h-1.7L525.8,262.3
	L525.8,262.3z M532.3,268.8v-10.1h1.4v1.1c0.4-0.7,1.2-1.3,2.4-1.3c2.2,0,3.3,1.7,3.3,3.8c0,2.1-1.2,3.8-3.4,3.8
	c-1.1,0-1.9-0.5-2.3-1.2v3.8h-1.4V268.8z M535.8,259.8c-1.3,0-2.1,1.1-2.1,2.5c0,1.5,0.9,2.5,2.1,2.5c1.3,0,2.1-1.1,2.1-2.5
	S537.1,259.8,535.8,259.8z M548.2,263.9c-0.4,1.3-1.6,2.3-3.2,2.3c-1.9,0-3.6-1.4-3.6-3.9c0-2.3,1.6-3.8,3.4-3.8
	c2.2,0,3.5,1.5,3.5,3.8v0.4h-5.4c0,1.3,1,2.2,2.2,2.2s1.8-0.6,2-1.5L548.2,263.9z M546.8,261.6c0-1-0.7-1.8-2-1.8
	c-1.2,0-1.9,0.9-2,1.8H546.8z M554.8,260.2h-0.6c-1.2,0-2,0.6-2,2.2v3.6h-1.4v-7.2h1.4v1.3c0.5-1.1,1.4-1.4,2.2-1.4h0.5v1.5H554.8z
	 M557.7,255c0.6,0,1,0.4,1,1c0,0.6-0.4,1-1,1s-1-0.5-1-1S557.2,255,557.7,255L557.7,255z M557,266v-7.2h1.4v7.2H557z M561.6,266
	v-7.2h1.3v1c0.5-0.8,1.4-1.2,2.2-1.2c0.9,0,1.8,0.4,2.2,1.4c0.6-1,1.5-1.4,2.4-1.4c1.3,0,2.5,0.9,2.5,2.7v4.7h-1.4v-4.5
	c0-0.9-0.5-1.7-1.5-1.7s-1.7,0.8-1.7,1.8v4.4h-1.4v-4.5c0-0.9-0.4-1.7-1.5-1.7c-1,0-1.7,0.8-1.7,1.8v4.3h-1.4L561.6,266z
	 M581.5,263.9c-0.4,1.3-1.6,2.3-3.2,2.3c-1.9,0-3.6-1.4-3.6-3.9c0-2.3,1.6-3.8,3.4-3.8c2.2,0,3.5,1.5,3.5,3.8v0.4h-5.4
	c0,1.3,1,2.2,2.2,2.2s1.8-0.6,2-1.5L581.5,263.9z M580,261.6c0-1-0.7-1.8-2-1.8c-1.2,0-1.9,0.9-2,1.8H580z M585.5,266h-1.4v-7.2h1.4
	v1c0.5-0.9,1.4-1.2,2.2-1.2c1.7,0,2.6,1.2,2.6,2.9v4.6h-1.4v-4.3c0-1-0.4-1.8-1.7-1.8c-1.1,0-1.7,0.9-1.7,2L585.5,266L585.5,266z
	 M595.1,258.8h1.6v1.3h-1.6v3.8c0,0.7,0.3,1,1,1c0.2,0,0.4,0,0.6-0.1v1.2c-0.1,0-0.5,0.1-1,0.1c-1.2,0-2-0.8-2-2.1v-4h-1.4v-1.3h0.4
	c0.8,0,1.1-0.5,1.1-1.1v-1.2h1.3L595.1,258.8L595.1,258.8z"/>
<path class="st2" d="M531.7,189.3v23.5 M520.8,198l10.9-10.8l10.9,10.8"/>
<path class="st3" d="M223,144.7h287.7"/>
<circle class="st3" cx="202" cy="144.7" r="21"/>
<circle class="st3" cx="311.9" cy="144.7" r="21"/>
<circle class="st3" cx="421.8" cy="144.7" r="21"/>
<circle class="st4" cx="531.7" cy="144.7" r="21"/>
<path class="st2" d="M532.6,99.7V76.2 M543.5,91l-10.9,10.8L521.8,91"/>
<g>
	<path class="st5" d="M483.6,4.6h96.2v50h-96.2V4.6z"/>
	<g>
		<path class="st6" d="M516.5,35.7v-10h2l2.4,7.1c0.2,0.7,0.4,1.2,0.5,1.5c0.1-0.4,0.3-0.9,0.5-1.6l2.4-7h1.8v10h-1.3v-8.4l-2.9,8.4
			h-1.2l-2.9-8.5v8.5H516.5z"/>
		<path class="st6" d="M533.5,34.8c-0.5,0.4-0.9,0.7-1.3,0.8c-0.4,0.2-0.9,0.2-1.4,0.2c-0.8,0-1.4-0.2-1.8-0.6
			c-0.4-0.4-0.6-0.9-0.6-1.5c0-0.4,0.1-0.7,0.2-1c0.2-0.3,0.4-0.5,0.6-0.7c0.3-0.2,0.6-0.3,0.9-0.4c0.2-0.1,0.6-0.1,1.1-0.2
			c1-0.1,1.7-0.3,2.2-0.4c0-0.2,0-0.3,0-0.3c0-0.5-0.1-0.9-0.3-1.1c-0.3-0.3-0.8-0.4-1.4-0.4c-0.6,0-1,0.1-1.3,0.3
			c-0.3,0.2-0.5,0.6-0.6,1.1l-1.2-0.2c0.1-0.5,0.3-0.9,0.5-1.2c0.3-0.3,0.6-0.6,1.1-0.7c0.5-0.2,1-0.3,1.6-0.3s1.1,0.1,1.5,0.2
			s0.7,0.3,0.9,0.6c0.2,0.2,0.3,0.5,0.4,0.8c0,0.2,0.1,0.6,0.1,1.1v1.6c0,1.1,0,1.9,0.1,2.2s0.2,0.6,0.3,0.9h-1.3
			C533.6,35.5,533.5,35.2,533.5,34.8z M533.4,32.1c-0.4,0.2-1.1,0.3-2,0.5c-0.5,0.1-0.9,0.2-1.1,0.2c-0.2,0-0.4,0.2-0.5,0.4
			c-0.1,0.2-0.2,0.4-0.2,0.6c0,0.3,0.1,0.6,0.4,0.8c0.2,0.2,0.6,0.3,1.1,0.3s0.9-0.1,1.3-0.3c0.4-0.2,0.6-0.5,0.8-0.9
			c0.1-0.3,0.2-0.7,0.2-1.2V32.1L533.4,32.1z"/>
		<path class="st6" d="M537.2,27.1v-1.4h1.2v1.4H537.2z M537.2,35.7v-7.3h1.2v7.3H537.2z"/>
		<path class="st6" d="M541,35.7v-7.3h1.1v1c0.5-0.8,1.3-1.2,2.3-1.2c0.4,0,0.8,0.1,1.2,0.2c0.4,0.2,0.6,0.4,0.8,0.6
			s0.3,0.6,0.4,0.9c0,0.2,0.1,0.6,0.1,1.2v4.5h-1.2v-4.4c0-0.5,0-0.9-0.1-1.1s-0.3-0.4-0.5-0.6c-0.2-0.1-0.5-0.2-0.9-0.2
			c-0.5,0-1,0.2-1.4,0.5s-0.6,1-0.6,1.9v4H541L541,35.7z"/>
	</g>
</g>
</svg>
