<?xml version="1.0" encoding="utf-8"?>
<!-- Generator: Adobe Illustrator 25.2.3, SVG Export Plug-In . SVG Version: 6.00 Build 0)  -->
<svg version="1.1" id="Layer_1" xmlns="http://www.w3.org/2000/svg" xmlns:xlink="http://www.w3.org/1999/xlink" x="0px" y="0px"
	 viewBox="0 0 757.6 356.9" style="enable-background:new 0 0 757.6 356.9;" xml:space="preserve">
<style type="text/css">
	.st0{fill:none;stroke:#404040;stroke-width:4;stroke-linecap:round;stroke-linejoin:round;stroke-miterlimit:10;}
	.st1{fill:#FFFFFF;stroke:#404040;stroke-width:4;stroke-linecap:round;stroke-linejoin:round;stroke-miterlimit:10;}
	.st2{fill:#59AFE1;stroke:#404040;stroke-width:4;stroke-linejoin:round;stroke-miterlimit:10;}
	.st3{fill:#B18BE8;stroke:#404040;stroke-width:4;stroke-linecap:round;stroke-linejoin:round;stroke-miterlimit:10;}
	.st4{fill:#404040;}
	.st5{fill:#4ED1A1;stroke:#404040;stroke-width:4;stroke-linecap:round;stroke-linejoin:round;stroke-miterlimit:10;}
	.st6{fill:#B3E3FF;stroke:#404040;stroke-width:4;stroke-linejoin:round;stroke-miterlimit:10;}
	.st7{fill:#414141;}
</style>
<path class="st0" d="M713.6,136.9h-41.3 M713.6,218.9H483.8 M558.6,177.9c0,22.6-18.4,41-41,41H373.8 M558.6,177.9
	c0-22.6,18.4-41,41-41h30.7 M287.1,260c0,22.6-18.4,41-41,41H44 M287.1,260c0-22.6,18.4-41,41-41h30.7"/>
<path class="st1" d="M482,239.9h-38c-1.1,0-2-0.9-2-2v-38c0-1.1,0.9-2,2-2h38c1.1,0,2,0.9,2,2v38C484,239.1,483.1,239.9,482,239.9z
	 M670.3,239.9h-38c-1.1,0-2-0.9-2-2v-38c0-1.1,0.9-2,2-2h38c1.1,0,2,0.9,2,2v38C672.3,239.1,671.4,239.9,670.3,239.9z M753.6,239.9
	h-38c-1.1,0-2-0.9-2-2v-38c0-1.1,0.9-2,2-2h38c1.1,0,2,0.9,2,2v38C755.6,239.1,754.7,239.9,753.6,239.9z M398.8,239.9h-38
	c-1.1,0-2-0.9-2-2v-38c0-1.1,0.9-2,2-2h38c1.1,0,2,0.9,2,2v38C400.8,239.1,399.9,239.9,398.8,239.9z M753.6,157.9h-38
	c-1.1,0-2-0.9-2-2v-38c0-1.1,0.9-2,2-2h38c1.1,0,2,0.9,2,2v38C755.6,157.1,754.7,157.9,753.6,157.9z M670.3,157.9h-38
	c-1.1,0-2-0.9-2-2v-38c0-1.1,0.9-2,2-2h38c1.1,0,2,0.9,2,2v38C672.3,157.1,671.4,157.9,670.3,157.9z"/>
<circle class="st2" cx="189.5" cy="301" r="21"/>
<circle class="st1" cx="106.3" cy="301" r="21"/>
<circle class="st1" cx="23" cy="301" r="21"/>
<path class="st3" d="M595.1,2.1h160.2v50H595.1V2.1z"/>
<path class="st4" d="M620.6,22.2c2.7,0,5.3,2,5.3,5.5s-2.7,5.5-5.3,5.5c-2.7,0-5.3-2-5.3-5.5S618,22.2,620.6,22.2z M620.6,31.8
	c2,0,3.8-1.4,3.8-4.2s-1.9-4.2-3.8-4.2c-2,0-3.8,1.4-3.8,4.2S618.7,31.8,620.6,31.8z M632.6,27.3H632c-1.2,0-2,0.6-2,2.2v3.6h-1.4
	v-7.2h1.4v1.3c0.5-1.1,1.4-1.4,2.2-1.4h0.5v1.5L632.6,27.3z M635.5,22.1c0.6,0,1,0.5,1,1c0,0.6-0.4,1-1,1s-1-0.5-1-1
	S635,22.1,635.5,22.1z M634.9,33.1v-7.2h1.4v7.2H634.9z M640.2,33.1c0.1,1,0.9,1.8,2,1.8c1.5,0,2.2-0.8,2.2-2.3v-1
	c-0.3,0.7-1.1,1.2-2.2,1.2c-1.9,0-3.3-1.5-3.3-3.5s1.3-3.5,3.3-3.5c1.1,0,1.9,0.4,2.2,1.1v-1h1.4v6.7c0,1.8-0.9,3.6-3.6,3.6
	c-1.8,0-3.1-1.1-3.3-2.7L640.2,33.1L640.2,33.1z M644.5,29.2c0-1.4-0.8-2.3-2.1-2.3c-1.2,0-2.1,0.9-2.1,2.3s0.8,2.3,2.1,2.3
	C643.6,31.6,644.5,30.6,644.5,29.2z M649.5,22.1c0.6,0,1,0.5,1,1c0,0.6-0.4,1-1,1s-1-0.5-1-1S649,22.1,649.5,22.1z M648.8,33.1v-7.2
	h1.4v7.2H648.8z M654.8,33.1h-1.4v-7.2h1.4v1c0.5-0.9,1.4-1.2,2.2-1.2c1.7,0,2.6,1.2,2.6,2.8v4.6h-1.4v-4.3c0-1-0.4-1.8-1.7-1.8
	c-1.1,0-1.7,0.9-1.7,2L654.8,33.1L654.8,33.1z M667.2,33.1h-1.4l5.1-10.6h1.4L667.2,33.1z M679,33.1V22.4h3.7c2.7,0,5.1,1.8,5.1,5.3
	s-2.4,5.3-5.1,5.3L679,33.1L679,33.1z M682.6,31.6c2,0,3.6-1.3,3.6-4s-1.6-4-3.6-4h-2.2v8H682.6z M696.6,31.1
	c-0.4,1.3-1.6,2.3-3.2,2.3c-1.9,0-3.6-1.4-3.6-3.9c0-2.3,1.6-3.8,3.4-3.8c2.2,0,3.5,1.5,3.5,3.8V30h-5.4c0,1.3,1,2.2,2.2,2.2
	s1.8-0.6,2-1.5L696.6,31.1z M695.2,28.6c0-1-0.7-1.8-2-1.8c-1.2,0-1.9,0.9-2,1.8H695.2z M702.4,33.1H701l-2.9-7.2h1.6l2.1,5.6
	l2.1-5.6h1.5L702.4,33.1L702.4,33.1z M713.4,31.1c-0.4,1.3-1.6,2.3-3.2,2.3c-1.9,0-3.6-1.4-3.6-3.9c0-2.3,1.6-3.8,3.4-3.8
	c2.2,0,3.5,1.5,3.5,3.8V30h-5.4c0,1.3,1,2.2,2.2,2.2s1.8-0.6,2-1.5L713.4,31.1z M712,28.6c0-1-0.7-1.8-2-1.8c-1.2,0-1.9,0.9-2,1.8
	H712z M716,33.1V22.2h1.4v10.9H716L716,33.1z M727.4,29.3c0,2.2-1.5,3.8-3.7,3.8s-3.7-1.6-3.7-3.8s1.5-3.8,3.7-3.8
	C725.9,25.6,727.4,27.2,727.4,29.3z M725.9,29.3c0-1.7-1.1-2.6-2.2-2.6c-1.1,0-2.2,0.9-2.2,2.6s1.1,2.6,2.2,2.6
	C724.8,32.1,725.9,31.1,725.9,29.3z M729.9,35.8V25.7h1.4v1.1c0.4-0.7,1.2-1.3,2.4-1.3c2.2,0,3.3,1.7,3.3,3.8s-1.2,3.8-3.4,3.8
	c-1.1,0-1.9-0.5-2.3-1.2v3.8L729.9,35.8L729.9,35.8z M733.4,26.8c-1.3,0-2.1,1.1-2.1,2.5c0,1.5,0.9,2.5,2.1,2.5
	c1.3,0,2.1-1.1,2.1-2.5C735.6,28.1,734.8,26.8,733.4,26.8z"/>
<path class="st5" d="M555.4,305h200.2v50H555.4V305z"/>
<path class="st4" d="M578.9,325c2.7,0,5.3,2,5.3,5.5c0,3.6-2.7,5.5-5.3,5.5c-2.7,0-5.3-2-5.3-5.5S576.3,325,578.9,325z M578.9,334.8
	c2,0,3.8-1.4,3.8-4.2s-1.9-4.2-3.8-4.2c-2,0-3.8,1.4-3.8,4.2S576.9,334.8,578.9,334.8z M590.9,330.2h-0.6c-1.2,0-2,0.6-2,2.2v3.6
	h-1.4v-7.2h1.4v1.3c0.5-1.1,1.4-1.4,2.2-1.4h0.5L590.9,330.2L590.9,330.2L590.9,330.2z M593.8,325c0.6,0,1,0.4,1,1s-0.4,1-1,1
	s-1-0.5-1-1S593.3,325,593.8,325z M593.1,336v-7.2h1.4v7.2H593.1z M598.5,336c0.1,1,0.9,1.8,2,1.8c1.5,0,2.2-0.8,2.2-2.3v-1
	c-0.3,0.7-1.1,1.2-2.2,1.2c-1.9,0-3.3-1.5-3.3-3.5c0-1.9,1.3-3.5,3.3-3.5c1.1,0,1.9,0.4,2.2,1.1v-1h1.4v6.7c0,1.8-0.9,3.6-3.6,3.6
	c-1.8,0-3.1-1.1-3.3-2.7L598.5,336L598.5,336z M602.8,332c0-1.4-0.8-2.3-2.1-2.3c-1.2,0-2.1,0.9-2.1,2.3s0.8,2.3,2.1,2.3
	C601.9,334.2,602.8,333.5,602.8,332z M607.8,325c0.6,0,1,0.4,1,1s-0.4,1-1,1s-1-0.5-1-1S607.2,325,607.8,325z M607.1,336v-7.2h1.4
	v7.2H607.1z M613.1,336h-1.4v-7.2h1.4v1c0.5-0.9,1.4-1.2,2.2-1.2c1.7,0,2.6,1.2,2.6,2.9v4.6h-1.4v-4.3c0-1-0.4-1.8-1.7-1.8
	c-1.1,0-1.7,0.9-1.7,2L613.1,336L613.1,336z M625.5,336h-1.4l5.1-10.6h1.4L625.5,336z M642.7,328.2c-0.1-0.8-0.8-1.8-2.2-1.8
	c-1.2,0-2.1,0.8-2.1,1.8c0,0.8,0.5,1.4,1.4,1.5l1.6,0.3c1.8,0.4,2.8,1.5,2.8,3c0,1.6-1.4,3.1-3.7,3.1c-2.6,0-3.8-1.6-4-3.2l1.4-0.4
	c0.1,1.2,0.9,2.3,2.5,2.3c1.5,0,2.2-0.8,2.2-1.7c0-0.8-0.5-1.4-1.6-1.6l-1.5-0.3c-1.5-0.3-2.6-1.3-2.6-2.9c0-1.7,1.5-3.2,3.5-3.2
	c2.4,0,3.4,1.5,3.6,2.6L642.7,328.2L642.7,328.2z M653.4,332.2c0,2.2-1.5,3.8-3.7,3.8s-3.7-1.6-3.7-3.8s1.5-3.8,3.7-3.8
	S653.4,330.2,653.4,332.2z M651.9,332.2c0-1.7-1.1-2.6-2.2-2.6c-1.1,0-2.2,0.9-2.2,2.6s1,2.6,2.2,2.6
	C650.9,334.9,651.9,334,651.9,332.2z M655.9,336v-7.2h1.3v1c0.5-0.8,1.4-1.2,2.2-1.2c0.9,0,1.8,0.4,2.2,1.4c0.6-1,1.5-1.4,2.4-1.4
	c1.3,0,2.5,0.9,2.5,2.7v4.7h-1.4v-4.5c0-0.9-0.5-1.6-1.5-1.6s-1.7,0.8-1.7,1.8v4.4h-1.4v-4.5c0-0.9-0.4-1.6-1.5-1.6
	c-1,0-1.7,0.8-1.7,1.8v4.3L655.9,336L655.9,336z M675.8,333.8c-0.4,1.3-1.6,2.3-3.2,2.3c-1.9,0-3.6-1.4-3.6-3.9
	c0-2.3,1.6-3.8,3.4-3.8c2.2,0,3.5,1.5,3.5,3.8v0.4h-5.4c0,1.3,1,2.2,2.2,2.2s1.8-0.6,2-1.5L675.8,333.8z M674.4,331.5
	c0-1-0.7-1.8-2-1.8c-1.2,0-1.9,0.9-2,1.8H674.4z M683.1,336v-10.7h6.5v1.4h-5v3.4h4.5v1.4h-4.5v4.5L683.1,336L683.1,336z
	 M697.7,333.8c-0.4,1.3-1.6,2.3-3.2,2.3c-1.9,0-3.6-1.4-3.6-3.9c0-2.3,1.6-3.8,3.4-3.8c2.2,0,3.5,1.5,3.5,3.8v0.4h-5.4
	c0,1.3,1,2.2,2.2,2.2s1.8-0.6,2-1.5L697.7,333.8z M696.3,331.5c0-1-0.7-1.8-2-1.8c-1.2,0-1.9,0.9-2,1.8H696.3z M702,331.8l1.9-0.3
	c0.4-0.1,0.6-0.3,0.6-0.5c0-0.7-0.5-1.3-1.6-1.3c-1,0-1.5,0.6-1.6,1.5l-1.4-0.3c0.2-1.4,1.4-2.3,3-2.3c2.2,0,3,1.2,3,2.6v3.6
	c0,0.6,0.1,1,0.1,1.2h-1.4c0-0.2-0.1-0.5-0.1-1c-0.3,0.5-1,1.2-2.3,1.2c-1.5,0-2.4-1-2.4-2.2C699.8,332.7,700.8,332,702,331.8
	L702,331.8z M704.5,332.8v-0.3l-2.2,0.3c-0.6,0.1-1.1,0.4-1.1,1.1c0,0.5,0.4,1,1.2,1C703.6,335,704.5,334.5,704.5,332.8z
	 M710.8,328.7h1.6v1.3h-1.6v3.8c0,0.7,0.3,1,1,1c0.2,0,0.4,0,0.6-0.1v1.2c-0.1,0-0.5,0.1-1,0.1c-1.2,0-2-0.8-2-2.1v-4H708v-1.3h0.4
	c0.8,0,1.1-0.5,1.1-1.1v-1.2h1.3V328.7L710.8,328.7z M717.6,336.2c-1.7,0-2.7-1.3-2.7-2.9v-4.5h1.4v4.3c0,1,0.4,1.9,1.6,1.9
	c1.1,0,1.7-0.8,1.7-1.8v-4.4h1.4v5.9c0,0.6,0,1.1,0.1,1.3h-1.3c0-0.2-0.1-0.6-0.1-0.9C719.3,335.8,718.4,336.2,717.6,336.2
	L717.6,336.2z M728.2,330.2h-0.6c-1.2,0-2,0.6-2,2.2v3.6h-1.4v-7.2h1.4v1.3c0.5-1.1,1.4-1.4,2.2-1.4h0.5L728.2,330.2L728.2,330.2
	L728.2,330.2z M736.7,333.8c-0.4,1.3-1.6,2.3-3.2,2.3c-1.9,0-3.6-1.4-3.6-3.9c0-2.3,1.6-3.8,3.4-3.8c2.2,0,3.5,1.5,3.5,3.8v0.4h-5.4
	c0,1.3,1,2.2,2.2,2.2s1.8-0.6,2-1.5L736.7,333.8z M735.2,331.5c0-1-0.7-1.8-2-1.8c-1.2,0-1.9,0.9-2,1.8H735.2z"/>
<path class="st6" d="M109.4,163.4h160.2v50H109.4V163.4z"/>
<path class="st0" d="M189.5,256.7v-23.5 M200.4,247.9l-10.9,10.9l-10.9-10.9"/>
<path class="st0" d="M463,176.4v-23.5 M473.9,167.7L463,178.4l-10.8-10.8 M734.6,261v23.5 M723.7,269.7l10.9-10.8l10.8,10.8
	 M734.6,95.4V71.9 M745.4,86.7l-10.8,10.9l-10.9-10.9"/>
<g>
	<path class="st6" d="M382.9,83.2h160.2v50H382.9V83.2z"/>
	<g>
		<path class="st4" d="M419.8,103.3c2.7,0,5.3,2,5.3,5.5c0,3.6-2.7,5.5-5.3,5.5c-2.7,0-5.3-2-5.3-5.5
			C414.4,105.3,417.1,103.3,419.8,103.3z M419.8,113.1c2,0,3.8-1.4,3.8-4.2s-1.9-4.2-3.8-4.2c-2,0-3.8,1.4-3.8,4.2
			S417.8,113.1,419.8,113.1z M431.7,108.4h-0.6c-1.2,0-2,0.6-2,2.2v3.6h-1.4V107h1.4v1.3c0.5-1.1,1.4-1.4,2.2-1.4h0.5v1.5
			L431.7,108.4L431.7,108.4z M434.7,103.2c0.6,0,1,0.4,1,1s-0.5,1-1,1c-0.6,0-1-0.5-1-1S434.1,103.2,434.7,103.2z M434,114.2V107
			h1.4v7.2H434z M439.4,114.3c0.1,1,0.9,1.8,2,1.8c1.5,0,2.2-0.8,2.2-2.3v-1c-0.3,0.7-1.1,1.2-2.2,1.2c-1.9,0-3.3-1.5-3.3-3.5
			c0-1.9,1.3-3.5,3.3-3.5c1.1,0,1.9,0.4,2.2,1.1v-1h1.4v6.7c0,1.8-0.9,3.6-3.6,3.6c-1.8,0-3.2-1.1-3.3-2.7
			C438.1,114.7,439.4,114.3,439.4,114.3z M443.6,110.4c0-1.4-0.8-2.3-2.1-2.3c-1.2,0-2.1,0.9-2.1,2.3c0,1.4,0.8,2.3,2.1,2.3
			S443.6,111.8,443.6,110.4z M448.6,103.2c0.6,0,1,0.4,1,1s-0.5,1-1,1c-0.6,0-1-0.5-1-1S448.1,103.2,448.6,103.2z M448,114.2V107
			h1.4v7.2H448z M453.9,114.2h-1.4V107h1.4v1c0.5-0.9,1.4-1.2,2.2-1.2c1.7,0,2.6,1.2,2.6,2.9v4.6h-1.4V110c0-1-0.4-1.8-1.7-1.8
			c-1.1,0-1.7,0.9-1.7,2V114.2z M466.3,114.2h-1.4l5.1-10.6h1.4L466.3,114.2z"/>
		<g>
			<path class="st7" d="M479,114.1v-10h2l2.4,7.1c0.2,0.7,0.4,1.2,0.5,1.5c0.1-0.4,0.3-0.9,0.5-1.6l2.4-7h1.8v10h-1.3v-8.4l-2.9,8.4
				h-1.2l-2.9-8.5v8.5H479z"/>
			<path class="st7" d="M496,113.2c-0.5,0.4-0.9,0.7-1.3,0.8c-0.4,0.2-0.9,0.2-1.4,0.2c-0.8,0-1.4-0.2-1.8-0.6
				c-0.4-0.4-0.6-0.9-0.6-1.5c0-0.4,0.1-0.7,0.2-1c0.2-0.3,0.4-0.5,0.6-0.7c0.3-0.2,0.6-0.3,0.9-0.4c0.2-0.1,0.6-0.1,1.1-0.2
				c1-0.1,1.7-0.3,2.2-0.4c0-0.2,0-0.3,0-0.3c0-0.5-0.1-0.9-0.3-1.1c-0.3-0.3-0.8-0.4-1.4-0.4c-0.6,0-1,0.1-1.3,0.3
				s-0.5,0.6-0.6,1.1l-1.2-0.2c0.1-0.5,0.3-0.9,0.5-1.2c0.3-0.3,0.6-0.6,1.1-0.7c0.5-0.2,1-0.3,1.6-0.3s1.1,0.1,1.5,0.2
				c0.4,0.1,0.7,0.3,0.9,0.6c0.2,0.2,0.3,0.5,0.4,0.8c0,0.2,0.1,0.6,0.1,1.1v1.6c0,1.1,0,1.9,0.1,2.2s0.2,0.6,0.3,0.9h-1.3
				C496.1,113.9,496,113.6,496,113.2z M495.9,110.5c-0.4,0.2-1.1,0.3-2,0.5c-0.5,0.1-0.9,0.2-1.1,0.2s-0.4,0.2-0.5,0.4
				s-0.2,0.4-0.2,0.6c0,0.3,0.1,0.6,0.4,0.8c0.2,0.2,0.6,0.3,1.1,0.3s0.9-0.1,1.3-0.3s0.6-0.5,0.8-0.9c0.1-0.3,0.2-0.7,0.2-1.2
				V110.5L495.9,110.5z"/>
			<path class="st7" d="M499.7,105.5v-1.4h1.2v1.4H499.7z M499.7,114.1v-7.3h1.2v7.3H499.7z"/>
			<path class="st7" d="M503.5,114.1v-7.3h1.1v1c0.5-0.8,1.3-1.2,2.3-1.2c0.4,0,0.8,0.1,1.2,0.2c0.4,0.2,0.6,0.4,0.8,0.6
				s0.3,0.6,0.4,0.9c0,0.2,0.1,0.6,0.1,1.2v4.5h-1.2v-4.4c0-0.5,0-0.9-0.1-1.1s-0.3-0.4-0.5-0.6c-0.2-0.1-0.5-0.2-0.9-0.2
				c-0.5,0-1,0.2-1.4,0.5s-0.6,1-0.6,1.9v4L503.5,114.1L503.5,114.1z"/>
		</g>
	</g>
</g>
<g>
	<g>
		<path class="st7" d="M174.8,194.5v-10h2l2.4,7.1c0.2,0.7,0.4,1.2,0.5,1.5c0.1-0.4,0.3-0.9,0.5-1.6l2.4-7h1.8v10h-1.3v-8.4
			l-2.9,8.4H179l-2.9-8.5v8.5H174.8z"/>
		<path class="st7" d="M191.8,193.6c-0.5,0.4-0.9,0.7-1.3,0.8c-0.4,0.2-0.9,0.2-1.4,0.2c-0.8,0-1.4-0.2-1.8-0.6
			c-0.4-0.4-0.6-0.9-0.6-1.5c0-0.4,0.1-0.7,0.2-1c0.2-0.3,0.4-0.5,0.6-0.7c0.3-0.2,0.6-0.3,0.9-0.4c0.2-0.1,0.6-0.1,1.1-0.2
			c1-0.1,1.7-0.3,2.2-0.4c0-0.2,0-0.3,0-0.3c0-0.5-0.1-0.9-0.3-1.1c-0.3-0.3-0.8-0.4-1.4-0.4s-1,0.1-1.3,0.3s-0.5,0.6-0.6,1.1
			l-1.2-0.2c0.1-0.5,0.3-0.9,0.5-1.2c0.3-0.3,0.6-0.6,1.1-0.7c0.5-0.2,1-0.3,1.6-0.3s1.1,0.1,1.5,0.2s0.7,0.3,0.9,0.6
			c0.2,0.2,0.3,0.5,0.4,0.8c0,0.2,0.1,0.6,0.1,1.1v1.6c0,1.1,0,1.9,0.1,2.2s0.2,0.6,0.3,0.9h-1.3C191.9,194.3,191.8,194,191.8,193.6
			z M191.7,190.9c-0.4,0.2-1.1,0.3-2,0.5c-0.5,0.1-0.9,0.2-1.1,0.2s-0.4,0.2-0.5,0.4s-0.2,0.4-0.2,0.6c0,0.3,0.1,0.6,0.4,0.8
			c0.2,0.2,0.6,0.3,1.1,0.3s0.9-0.1,1.3-0.3s0.6-0.5,0.8-0.9c0.1-0.3,0.2-0.7,0.2-1.2L191.7,190.9L191.7,190.9z"/>
		<path class="st7" d="M195.5,185.9v-1.4h1.2v1.4H195.5z M195.5,194.5v-7.3h1.2v7.3H195.5z"/>
		<path class="st7" d="M199.3,194.5v-7.3h1.1v1c0.5-0.8,1.3-1.2,2.3-1.2c0.4,0,0.8,0.1,1.2,0.2c0.4,0.2,0.6,0.4,0.8,0.6
			s0.3,0.6,0.4,0.9c0,0.2,0.1,0.6,0.1,1.2v4.5H204V190c0-0.5,0-0.9-0.1-1.1c-0.1-0.2-0.3-0.4-0.5-0.6c-0.2-0.1-0.5-0.2-0.9-0.2
			c-0.5,0-1,0.2-1.4,0.5s-0.6,1-0.6,1.9v4L199.3,194.5L199.3,194.5z"/>
	</g>
</g>
</svg>
