<?xml version="1.0" encoding="utf-8"?>
<!-- Generator: Adobe Illustrator 25.2.3, SVG Export Plug-In . SVG Version: 6.00 Build 0)  -->
<svg version="1.1" id="Lager_1" xmlns="http://www.w3.org/2000/svg" xmlns:xlink="http://www.w3.org/1999/xlink" x="0px" y="0px"
	 viewBox="0 0 800 1027" style="enable-background:new 0 0 800 1027;" xml:space="preserve">
<style type="text/css">
	.st0{fill:#FFFFFF;stroke:#404040;stroke-width:4;stroke-linecap:round;stroke-linejoin:round;stroke-miterlimit:10;}
	.st1{fill:#59AFE1;stroke:#404040;stroke-width:4;stroke-linejoin:round;stroke-miterlimit:10;}
	.st2{fill:none;stroke:#404040;stroke-width:4;stroke-linecap:round;stroke-linejoin:round;stroke-miterlimit:10;}
	.st3{fill:#999999;}
	.st4{fill:none;stroke:#CCCCCC;stroke-linecap:round;stroke-linejoin:round;stroke-miterlimit:10;}
	.st5{fill:#B3E3FF;stroke:#404040;stroke-width:4;stroke-linecap:round;stroke-linejoin:round;stroke-miterlimit:10;}
	.st6{fill:#414141;}
	.st7{fill:#B3E3FF;stroke:#404040;stroke-width:4;stroke-linejoin:round;stroke-miterlimit:10;}
	.st8{fill:#404040;}
</style>
<path class="st0" d="M201.7,826.2h287.8"/>
<circle class="st0" cx="180.7" cy="826.2" r="21"/>
<circle class="st0" cx="290.6" cy="826.2" r="21"/>
<circle class="st0" cx="400.5" cy="826.2" r="21"/>
<circle class="st1" cx="510.5" cy="826.2" r="21"/>
<path class="st2" d="M510.5,868.6v23.5 M499.6,877.3l10.9-10.8l10.8,10.8"/>
<path class="st2" d="M511.4,783.3v-23.5 M522.2,774.6l-10.8,10.9l-10.9-10.9"/>
<path class="st3" d="M332.5,614.2h-4.7l-1.1,3h-1.6l4.2-10.6h1.7l4.2,10.6h-1.6L332.5,614.2z M328.4,612.8h3.7l-1.8-4.8L328.4,612.8
	L328.4,612.8z M339.3,611.2v5.9h-1.5v-5.9h-1.3v-1.3h1.3v-1.2c0-1.6,1.1-2.5,2.4-2.5c0.5,0,0.8,0.1,0.8,0.2v1.3
	c-0.1,0-0.3-0.1-0.6-0.1c-0.5,0-1.1,0.2-1.1,1.2v1.1h1.7v1.3H339.3L339.3,611.2z M345.2,609.9h1.6v1.3h-1.6v3.8c0,0.7,0.3,1,1,1
	c0.2,0,0.4,0,0.6-0.1v1.2c-0.1,0-0.5,0.1-1,0.1c-1.2,0-2-0.8-2-2.1v-4h-1.4v-1.3h0.4c0.8,0,1.1-0.5,1.1-1.1v-1.2h1.3V609.9
	L345.2,609.9z M355.6,615.1c-0.4,1.3-1.6,2.3-3.2,2.3c-1.9,0-3.6-1.4-3.6-3.9c0-2.3,1.6-3.8,3.4-3.8c2.2,0,3.5,1.5,3.5,3.8v0.4h-5.4
	c0,1.3,1,2.2,2.2,2.2s1.8-0.6,2-1.5L355.6,615.1z M354.1,612.8c0-1-0.7-1.8-2-1.8c-1.2,0-1.9,0.9-2,1.8H354.1z M362.2,611.3h-0.6
	c-1.2,0-2,0.6-2,2.2v3.6h-1.4v-7.2h1.4v1.3c0.5-1.1,1.4-1.4,2.2-1.4h0.5v1.5L362.2,611.3z M370.5,612.8v4.3H369v-10.6h3.9
	c2,0,3.3,1.4,3.3,3.2s-1.3,3.1-3.3,3.1H370.5z M372.7,611.5c1.3,0,2.1-0.7,2.1-1.8s-0.8-1.8-2.1-1.8h-2.1v3.6H372.7z M380.9,617.3
	c-1.7,0-2.7-1.3-2.7-2.9v-4.5h1.4v4.3c0,1,0.4,1.9,1.6,1.9c1.1,0,1.7-0.8,1.7-1.8v-4.4h1.4v5.9c0,0.6,0,1.1,0.1,1.3H383
	c0-0.2-0.1-0.6-0.1-0.9C382.7,617,381.8,617.3,380.9,617.3L380.9,617.3z M388.2,614.8c0.1,0.8,0.7,1.3,1.7,1.3c0.8,0,1.2-0.5,1.2-1
	s-0.3-0.8-0.9-0.9l-1.2-0.3c-1.1-0.2-1.8-1-1.8-2c0-1.2,1.2-2.3,2.6-2.3c2,0,2.6,1.3,2.7,1.9l-1.2,0.5c-0.1-0.4-0.4-1.2-1.5-1.2
	c-0.7,0-1.2,0.5-1.2,1c0,0.4,0.3,0.8,0.8,0.9l1.2,0.3c1.3,0.3,2,1.1,2,2.1s-0.9,2.2-2.6,2.2c-2,0-2.8-1.3-2.9-2.1L388.2,614.8
	L388.2,614.8z M396.5,617.1h-1.4v-10.9h1.4v4.5c0.5-0.8,1.4-1.1,2.2-1.1c1.7,0,2.6,1.2,2.6,2.9v4.6h-1.4v-4.3c0-1-0.4-1.8-1.7-1.8
	c-1.1,0-1.6,0.8-1.7,1.9V617.1L396.5,617.1z M405,606.2c0.6,0,1,0.4,1,1s-0.4,1-1,1s-1-0.5-1-1C404,606.6,404.4,606.2,405,606.2z
	 M404.3,617.1v-7.2h1.4v7.2H404.3z M410.2,617.1h-1.4v-7.2h1.4v1c0.5-0.9,1.4-1.2,2.2-1.2c1.7,0,2.6,1.2,2.6,2.9v4.6h-1.4v-4.3
	c0-1-0.4-1.8-1.7-1.8c-1.1,0-1.7,0.9-1.7,2V617.1z M418.8,617.2c0.1,1,0.9,1.8,2,1.8c1.5,0,2.2-0.8,2.2-2.3v-1
	c-0.3,0.7-1.1,1.2-2.2,1.2c-1.9,0-3.3-1.5-3.3-3.5c0-1.9,1.3-3.5,3.3-3.5c1.1,0,1.9,0.4,2.2,1.1v-1h1.4v6.7c0,1.8-0.9,3.6-3.6,3.6
	c-1.8,0-3.1-1.1-3.3-2.7L418.8,617.2L418.8,617.2z M423.1,613.3c0-1.4-0.8-2.3-2.1-2.3c-1.2,0-2.1,0.9-2.1,2.3s0.8,2.3,2.1,2.3
	C422.2,615.6,423.1,614.7,423.1,613.3z"/>
<path class="st0" d="M218.2,264.2h287.7"/>
<circle class="st0" cx="197.2" cy="264.2" r="21"/>
<circle class="st0" cx="307.1" cy="264.2" r="21"/>
<circle class="st0" cx="417" cy="264.2" r="21"/>
<circle class="st1" cx="526.9" cy="264.2" r="21"/>
<path class="st2" d="M526.9,306.7v23.4 M516.1,315.4l10.8-10.9l10.9,10.9"/>
<path class="st2" d="M307.1,221.3v-23.5 M318,212.6l-10.9,10.9l-10.9-10.9"/>
<path class="st3" d="M324.6,45.5c2,0,3.2,1.2,3.2,2.9c0,1.1-0.7,2-1.6,2.3c1.2,0.3,1.9,1.4,1.9,2.6c0,1.7-1.3,2.9-3.3,2.9h-3.7V45.5
	H324.6z M324.4,50.2c1.2,0,1.9-0.7,1.9-1.7s-0.7-1.7-1.9-1.7h-1.8v3.4H324.4z M324.6,54.9c1.2,0,2-0.7,2-1.7s-0.6-1.7-1.9-1.7h-2.1
	v3.4H324.6z M337.1,54.1c-0.4,1.3-1.6,2.3-3.2,2.3c-1.9,0-3.6-1.4-3.6-3.9c0-2.3,1.6-3.8,3.4-3.8c2.2,0,3.5,1.5,3.5,3.8V53h-5.4
	c0,1.3,1,2.2,2.2,2.2s1.8-0.6,2-1.5L337.1,54.1z M335.7,51.8c0-1-0.7-1.8-2-1.8c-1.2,0-1.9,0.9-2,1.8H335.7z M341.6,50.2v5.9h-1.5
	v-5.9h-1.3v-1.3h1.3v-1.2c0-1.6,1.1-2.5,2.4-2.5c0.5,0,0.8,0.1,0.8,0.2v1.3c-0.1,0-0.3-0.1-0.6-0.1c-0.5,0-1.1,0.2-1.1,1.2v1.1h1.7
	v1.3H341.6L341.6,50.2z M352,52.5c0,2.2-1.5,3.8-3.7,3.8s-3.7-1.6-3.7-3.8s1.5-3.8,3.7-3.8S352,50.3,352,52.5z M350.6,52.5
	c0-1.7-1.1-2.6-2.2-2.6s-2.2,0.9-2.2,2.6c0,1.7,1.1,2.6,2.2,2.6S350.6,54.2,350.6,52.5z M358.6,50.4H358c-1.2,0-2,0.6-2,2.2v3.6
	h-1.4V49h1.4v1.3c0.5-1.1,1.4-1.4,2.2-1.4h0.5v1.5L358.6,50.4z M367.1,54.1c-0.4,1.3-1.6,2.3-3.2,2.3c-1.9,0-3.6-1.4-3.6-3.9
	c0-2.3,1.6-3.8,3.4-3.8c2.2,0,3.5,1.5,3.5,3.8V53h-5.4c0,1.3,1,2.2,2.2,2.2s1.8-0.6,2-1.5L367.1,54.1z M365.6,51.8
	c0-1-0.7-1.8-2-1.8c-1.2,0-1.9,0.9-2,1.8H365.6z M375.8,51.8v4.3h-1.5V45.5h3.9c2,0,3.3,1.4,3.3,3.1c0,1.8-1.3,3.1-3.3,3.1h-2.4
	V51.8z M377.9,50.5c1.3,0,2.1-0.7,2.1-1.8s-0.8-1.8-2.1-1.8h-2.1v3.6H377.9z M386.2,56.4c-1.7,0-2.7-1.3-2.7-2.9V49h1.4v4.3
	c0,1,0.4,1.9,1.6,1.9c1.1,0,1.7-0.8,1.7-1.8v-4.3h1.4V55c0,0.6,0,1.1,0.1,1.3h-1.4c0-0.2-0.1-0.6-0.1-0.9
	C387.9,56,387,56.4,386.2,56.4z M393.4,53.8c0.1,0.8,0.7,1.3,1.7,1.3c0.8,0,1.2-0.4,1.2-1c0-0.4-0.3-0.8-0.9-0.9l-1.2-0.3
	c-1.1-0.2-1.8-1-1.8-2c0-1.2,1.2-2.3,2.6-2.3c2,0,2.6,1.3,2.7,1.9l-1.2,0.5c-0.1-0.4-0.4-1.2-1.5-1.2c-0.7,0-1.2,0.5-1.2,1
	c0,0.4,0.3,0.8,0.8,0.9l1.2,0.3c1.3,0.3,2,1.1,2,2.1s-0.9,2.2-2.6,2.2c-2,0-2.8-1.3-2.9-2.1L393.4,53.8L393.4,53.8z M401.7,56.2
	h-1.4V45.3h1.4v4.5c0.5-0.8,1.4-1,2.2-1c1.7,0,2.6,1.2,2.6,2.8v4.6h-1.4v-4.3c0-1-0.4-1.8-1.7-1.8c-1.1,0-1.6,0.8-1.7,1.9V56.2z
	 M410.2,45.2c0.6,0,1,0.5,1,1c0,0.6-0.4,1-1,1s-1-0.5-1-1C409.2,45.6,409.6,45.2,410.2,45.2z M409.5,56.2V49h1.4v7.2H409.5z
	 M415.5,56.2h-1.4V49h1.4v1c0.5-0.9,1.4-1.2,2.2-1.2c1.7,0,2.6,1.2,2.6,2.8v4.6h-1.4v-4.3c0-1-0.4-1.8-1.7-1.8c-1.1,0-1.7,0.9-1.7,2
	C415.5,52.1,415.5,56.2,415.5,56.2z M424.1,56.2c0.1,1,0.9,1.8,2,1.8c1.5,0,2.2-0.8,2.2-2.3v-1c-0.3,0.7-1.1,1.2-2.2,1.2
	c-1.9,0-3.3-1.5-3.3-3.5s1.3-3.5,3.3-3.5c1.1,0,1.9,0.4,2.2,1.1v-1h1.4v6.7c0,1.8-0.9,3.6-3.6,3.6c-1.8,0-3.1-1.1-3.3-2.7
	C422.8,56.6,424.1,56.2,424.1,56.2z M428.3,52.3c0-1.4-0.8-2.3-2.1-2.3c-1.2,0-2.1,0.9-2.1,2.3s0.8,2.3,2.1,2.3
	S428.3,53.7,428.3,52.3z"/>
<path class="st4" d="M104.9,503.3h541.4"/>
<g>
	<path class="st5" d="M478.8,350.2H575v50h-96.2V350.2z"/>
	<g>
		<path class="st6" d="M511.7,381.3v-10h2l2.4,7.1c0.2,0.7,0.4,1.2,0.5,1.5c0.1-0.4,0.3-0.9,0.5-1.6l2.4-7h1.8v10H520v-8.4l-2.9,8.4
			h-1.2l-2.9-8.5v8.5H511.7z"/>
		<path class="st6" d="M528.7,380.4c-0.5,0.4-0.9,0.7-1.3,0.8c-0.4,0.2-0.9,0.2-1.4,0.2c-0.8,0-1.4-0.2-1.8-0.6
			c-0.4-0.4-0.6-0.9-0.6-1.5c0-0.4,0.1-0.7,0.2-1c0.2-0.3,0.4-0.5,0.6-0.7c0.3-0.2,0.6-0.3,0.9-0.4c0.2-0.1,0.6-0.1,1.1-0.2
			c1-0.1,1.7-0.3,2.2-0.4c0-0.2,0-0.3,0-0.3c0-0.5-0.1-0.9-0.3-1.1c-0.3-0.3-0.8-0.4-1.4-0.4c-0.6,0-1,0.1-1.3,0.3
			c-0.3,0.2-0.5,0.6-0.6,1.1l-1.2-0.2c0.1-0.5,0.3-0.9,0.5-1.2c0.3-0.3,0.6-0.6,1.1-0.7c0.5-0.2,1-0.3,1.6-0.3s1.1,0.1,1.5,0.2
			s0.7,0.3,0.9,0.6c0.2,0.2,0.3,0.5,0.4,0.8c0,0.2,0.1,0.6,0.1,1.1v1.6c0,1.1,0,1.9,0.1,2.2s0.2,0.6,0.3,0.9H529
			C528.8,381.1,528.7,380.8,528.7,380.4z M528.6,377.7c-0.4,0.2-1.1,0.3-2,0.5c-0.5,0.1-0.9,0.2-1.1,0.2c-0.2,0-0.4,0.2-0.5,0.4
			c-0.1,0.2-0.2,0.4-0.2,0.6c0,0.3,0.1,0.6,0.4,0.8c0.2,0.2,0.6,0.3,1.1,0.3s0.9-0.1,1.3-0.3c0.4-0.2,0.6-0.5,0.8-0.9
			c0.1-0.3,0.2-0.7,0.2-1.2V377.7L528.6,377.7z"/>
		<path class="st6" d="M532.4,372.7v-1.4h1.2v1.4H532.4z M532.4,381.3V374h1.2v7.3H532.4z"/>
		<path class="st6" d="M536.2,381.3V374h1.1v1c0.5-0.8,1.3-1.2,2.3-1.2c0.4,0,0.8,0.1,1.2,0.2c0.4,0.2,0.6,0.4,0.8,0.6
			s0.3,0.6,0.4,0.9c0,0.2,0.1,0.6,0.1,1.2v4.5h-1.2v-4.4c0-0.5,0-0.9-0.1-1.1c-0.1-0.2-0.3-0.4-0.5-0.6c-0.2-0.1-0.5-0.2-0.9-0.2
			c-0.5,0-1,0.2-1.4,0.5c-0.4,0.3-0.6,1-0.6,1.9v4L536.2,381.3L536.2,381.3z"/>
	</g>
</g>
<g>
	<path class="st5" d="M462.4,912.1h96.2v50h-96.2V912.1z"/>
	<g>
		<path class="st6" d="M495.3,943.2v-10h2l2.4,7.1c0.2,0.7,0.4,1.2,0.5,1.5c0.1-0.4,0.3-0.9,0.5-1.6l2.4-7h1.8v10h-1.3v-8.4
			l-2.9,8.4h-1.2l-2.9-8.5v8.5H495.3z"/>
		<path class="st6" d="M512.3,942.3c-0.5,0.4-0.9,0.7-1.3,0.8c-0.4,0.2-0.9,0.2-1.4,0.2c-0.8,0-1.4-0.2-1.8-0.6
			c-0.4-0.4-0.6-0.9-0.6-1.5c0-0.4,0.1-0.7,0.2-1c0.2-0.3,0.4-0.5,0.6-0.7c0.3-0.2,0.6-0.3,0.9-0.4c0.2-0.1,0.6-0.1,1.1-0.2
			c1-0.1,1.7-0.3,2.2-0.4c0-0.2,0-0.3,0-0.3c0-0.5-0.1-0.9-0.3-1.1c-0.3-0.3-0.8-0.4-1.4-0.4s-1,0.1-1.3,0.3s-0.5,0.6-0.6,1.1
			l-1.2-0.2c0.1-0.5,0.3-0.9,0.5-1.2c0.3-0.3,0.6-0.6,1.1-0.7c0.5-0.2,1-0.3,1.6-0.3s1.1,0.1,1.5,0.2c0.4,0.1,0.7,0.3,0.9,0.6
			c0.2,0.2,0.3,0.5,0.4,0.8c0,0.2,0.1,0.6,0.1,1.1v1.6c0,1.1,0,1.9,0.1,2.2s0.2,0.6,0.3,0.9h-1.3C512.4,943,512.3,942.7,512.3,942.3
			z M512.2,939.6c-0.4,0.2-1.1,0.3-2,0.5c-0.5,0.1-0.9,0.2-1.1,0.2s-0.4,0.2-0.5,0.4s-0.2,0.4-0.2,0.6c0,0.3,0.1,0.6,0.4,0.8
			c0.2,0.2,0.6,0.3,1.1,0.3s0.9-0.1,1.3-0.3s0.6-0.5,0.8-0.9c0.1-0.3,0.2-0.7,0.2-1.2V939.6L512.2,939.6z"/>
		<path class="st6" d="M516,934.6v-1.4h1.2v1.4H516z M516,943.2v-7.3h1.2v7.3H516z"/>
		<path class="st6" d="M519.8,943.2v-7.3h1.1v1c0.5-0.8,1.3-1.2,2.3-1.2c0.4,0,0.8,0.1,1.2,0.2c0.4,0.2,0.6,0.4,0.8,0.6
			s0.3,0.6,0.4,0.9c0,0.2,0.1,0.6,0.1,1.2v4.5h-1.2v-4.4c0-0.5,0-0.9-0.1-1.1c-0.1-0.2-0.3-0.4-0.5-0.6c-0.2-0.1-0.5-0.2-0.9-0.2
			c-0.5,0-1,0.2-1.4,0.5c-0.4,0.3-0.6,1-0.6,1.9v4L519.8,943.2L519.8,943.2z"/>
	</g>
</g>
<g>
	<path class="st7" d="M227,128.2h160.2v50H227V128.2z"/>
	<g>
		<path class="st8" d="M263.9,148.3c2.7,0,5.3,2,5.3,5.5c0,3.6-2.7,5.5-5.3,5.5c-2.7,0-5.3-2-5.3-5.5
			C258.5,150.3,261.2,148.3,263.9,148.3z M263.9,158.1c2,0,3.8-1.4,3.8-4.2s-1.9-4.2-3.8-4.2c-2,0-3.8,1.4-3.8,4.2
			S261.9,158.1,263.9,158.1z M275.8,153.4h-0.6c-1.2,0-2,0.6-2,2.2v3.6h-1.4V152h1.4v1.3c0.5-1.1,1.4-1.4,2.2-1.4h0.5v1.5
			L275.8,153.4L275.8,153.4z M278.8,148.2c0.6,0,1,0.4,1,1s-0.5,1-1,1c-0.6,0-1-0.5-1-1S278.2,148.2,278.8,148.2z M278.1,159.2V152
			h1.4v7.2H278.1z M283.5,159.3c0.1,1,0.9,1.8,2,1.8c1.5,0,2.2-0.8,2.2-2.3v-1c-0.3,0.7-1.1,1.2-2.2,1.2c-1.9,0-3.3-1.5-3.3-3.5
			c0-1.9,1.3-3.5,3.3-3.5c1.1,0,1.9,0.4,2.2,1.1v-1h1.4v6.7c0,1.8-0.9,3.6-3.6,3.6c-1.8,0-3.2-1.1-3.3-2.7
			C282.2,159.7,283.5,159.3,283.5,159.3z M287.7,155.4c0-1.4-0.8-2.3-2.1-2.3c-1.2,0-2.1,0.9-2.1,2.3c0,1.4,0.8,2.3,2.1,2.3
			S287.7,156.8,287.7,155.4z M292.7,148.2c0.6,0,1,0.4,1,1s-0.5,1-1,1c-0.6,0-1-0.5-1-1S292.2,148.2,292.7,148.2z M292.1,159.2V152
			h1.4v7.2H292.1z M298,159.2h-1.4V152h1.4v1c0.5-0.9,1.4-1.2,2.2-1.2c1.7,0,2.6,1.2,2.6,2.9v4.6h-1.4V155c0-1-0.4-1.8-1.7-1.8
			c-1.1,0-1.7,0.9-1.7,2V159.2z M310.4,159.2H309l5.1-10.6h1.4L310.4,159.2z"/>
		<g>
			<path class="st6" d="M323.1,159.1v-10h2l2.4,7.1c0.2,0.7,0.4,1.2,0.5,1.5c0.1-0.4,0.3-0.9,0.5-1.6l2.4-7h1.8v10h-1.3v-8.4
				l-2.9,8.4h-1.2l-2.9-8.5v8.5H323.1z"/>
			<path class="st6" d="M340.1,158.2c-0.5,0.4-0.9,0.7-1.3,0.8c-0.4,0.2-0.9,0.2-1.4,0.2c-0.8,0-1.4-0.2-1.8-0.6
				c-0.4-0.4-0.6-0.9-0.6-1.5c0-0.4,0.1-0.7,0.2-1c0.2-0.3,0.4-0.5,0.6-0.7c0.3-0.2,0.6-0.3,0.9-0.4c0.2-0.1,0.6-0.1,1.1-0.2
				c1-0.1,1.7-0.3,2.2-0.4c0-0.2,0-0.3,0-0.3c0-0.5-0.1-0.9-0.3-1.1c-0.3-0.3-0.8-0.4-1.4-0.4c-0.6,0-1,0.1-1.3,0.3
				s-0.5,0.6-0.6,1.1l-1.2-0.2c0.1-0.5,0.3-0.9,0.5-1.2c0.3-0.3,0.6-0.6,1.1-0.7c0.5-0.2,1-0.3,1.6-0.3s1.1,0.1,1.5,0.2
				c0.4,0.1,0.7,0.3,0.9,0.6c0.2,0.2,0.3,0.5,0.4,0.8c0,0.2,0.1,0.6,0.1,1.1v1.6c0,1.1,0,1.9,0.1,2.2s0.2,0.6,0.3,0.9h-1.3
				C340.2,158.9,340.1,158.6,340.1,158.2z M340,155.5c-0.4,0.2-1.1,0.3-2,0.5c-0.5,0.1-0.9,0.2-1.1,0.2s-0.4,0.2-0.5,0.4
				s-0.2,0.4-0.2,0.6c0,0.3,0.1,0.6,0.4,0.8c0.2,0.2,0.6,0.3,1.1,0.3s0.9-0.1,1.3-0.3s0.6-0.5,0.8-0.9c0.1-0.3,0.2-0.7,0.2-1.2
				V155.5L340,155.5z"/>
			<path class="st6" d="M343.8,150.5v-1.4h1.2v1.4H343.8z M343.8,159.1v-7.3h1.2v7.3H343.8z"/>
			<path class="st6" d="M347.6,159.1v-7.3h1.1v1c0.5-0.8,1.3-1.2,2.3-1.2c0.4,0,0.8,0.1,1.2,0.2c0.4,0.2,0.6,0.4,0.8,0.6
				s0.3,0.6,0.4,0.9c0,0.2,0.1,0.6,0.1,1.2v4.5h-1.2v-4.4c0-0.5,0-0.9-0.1-1.1s-0.3-0.4-0.5-0.6c-0.2-0.1-0.5-0.2-0.9-0.2
				c-0.5,0-1,0.2-1.4,0.5s-0.6,1-0.6,1.9v4L347.6,159.1L347.6,159.1z"/>
		</g>
	</g>
</g>
<g>
	<path class="st7" d="M431.3,690.1h160.2v50H431.3V690.1z"/>
	<g>
		<path class="st8" d="M468.2,710.2c2.7,0,5.3,2,5.3,5.5c0,3.6-2.7,5.5-5.3,5.5c-2.7,0-5.3-2-5.3-5.5
			C462.8,712.2,465.5,710.2,468.2,710.2z M468.2,720c2,0,3.8-1.4,3.8-4.2s-1.9-4.2-3.8-4.2c-2,0-3.8,1.4-3.8,4.2
			S466.2,720,468.2,720z M480.1,715.3h-0.6c-1.2,0-2,0.6-2,2.2v3.6h-1.4v-7.2h1.4v1.3c0.5-1.1,1.4-1.4,2.2-1.4h0.5v1.5L480.1,715.3
			L480.1,715.3z M483.1,710.1c0.6,0,1,0.4,1,1s-0.5,1-1,1c-0.6,0-1-0.5-1-1S482.5,710.1,483.1,710.1z M482.4,721.1v-7.2h1.4v7.2
			H482.4z M487.8,721.2c0.1,1,0.9,1.8,2,1.8c1.5,0,2.2-0.8,2.2-2.3v-1c-0.3,0.7-1.1,1.2-2.2,1.2c-1.9,0-3.3-1.5-3.3-3.5
			c0-1.9,1.3-3.5,3.3-3.5c1.1,0,1.9,0.4,2.2,1.1v-1h1.4v6.7c0,1.8-0.9,3.6-3.6,3.6c-1.8,0-3.2-1.1-3.3-2.7
			C486.5,721.6,487.8,721.2,487.8,721.2z M492,717.3c0-1.4-0.8-2.3-2.1-2.3c-1.2,0-2.1,0.9-2.1,2.3c0,1.4,0.8,2.3,2.1,2.3
			S492,718.7,492,717.3z M497,710.1c0.6,0,1,0.4,1,1s-0.5,1-1,1c-0.6,0-1-0.5-1-1S496.5,710.1,497,710.1z M496.4,721.1v-7.2h1.4v7.2
			H496.4z M502.3,721.1h-1.4v-7.2h1.4v1c0.5-0.9,1.4-1.2,2.2-1.2c1.7,0,2.6,1.2,2.6,2.9v4.6h-1.4v-4.3c0-1-0.4-1.8-1.7-1.8
			c-1.1,0-1.7,0.9-1.7,2V721.1z M514.7,721.1h-1.4l5.1-10.6h1.4L514.7,721.1z"/>
		<g>
			<path class="st6" d="M527.4,721v-10h2l2.4,7.1c0.2,0.7,0.4,1.2,0.5,1.5c0.1-0.4,0.3-0.9,0.5-1.6l2.4-7h1.8v10h-1.3v-8.4l-2.9,8.4
				h-1.2l-2.9-8.5v8.5H527.4z"/>
			<path class="st6" d="M544.4,720.1c-0.5,0.4-0.9,0.7-1.3,0.8c-0.4,0.2-0.9,0.2-1.4,0.2c-0.8,0-1.4-0.2-1.8-0.6
				c-0.4-0.4-0.6-0.9-0.6-1.5c0-0.4,0.1-0.7,0.2-1c0.2-0.3,0.4-0.5,0.6-0.7c0.3-0.2,0.6-0.3,0.9-0.4c0.2-0.1,0.6-0.1,1.1-0.2
				c1-0.1,1.7-0.3,2.2-0.4c0-0.2,0-0.3,0-0.3c0-0.5-0.1-0.9-0.3-1.1c-0.3-0.3-0.8-0.4-1.4-0.4c-0.6,0-1,0.1-1.3,0.3
				s-0.5,0.6-0.6,1.1l-1.2-0.2c0.1-0.5,0.3-0.9,0.5-1.2c0.3-0.3,0.6-0.6,1.1-0.7c0.5-0.2,1-0.3,1.6-0.3s1.1,0.1,1.5,0.2
				c0.4,0.1,0.7,0.3,0.9,0.6c0.2,0.2,0.3,0.5,0.4,0.8c0,0.2,0.1,0.6,0.1,1.1v1.6c0,1.1,0,1.9,0.1,2.2s0.2,0.6,0.3,0.9h-1.3
				C544.5,720.8,544.4,720.5,544.4,720.1z M544.3,717.4c-0.4,0.2-1.1,0.3-2,0.5c-0.5,0.1-0.9,0.2-1.1,0.2s-0.4,0.2-0.5,0.4
				s-0.2,0.4-0.2,0.6c0,0.3,0.1,0.6,0.4,0.8c0.2,0.2,0.6,0.3,1.1,0.3s0.9-0.1,1.3-0.3s0.6-0.5,0.8-0.9c0.1-0.3,0.2-0.7,0.2-1.2
				V717.4L544.3,717.4z"/>
			<path class="st6" d="M548.1,712.4V711h1.2v1.4H548.1z M548.1,721v-7.3h1.2v7.3H548.1z"/>
			<path class="st6" d="M551.9,721v-7.3h1.1v1c0.5-0.8,1.3-1.2,2.3-1.2c0.4,0,0.8,0.1,1.2,0.2c0.4,0.2,0.6,0.4,0.8,0.6
				s0.3,0.6,0.4,0.9c0,0.2,0.1,0.6,0.1,1.2v4.5h-1.2v-4.4c0-0.5,0-0.9-0.1-1.1s-0.3-0.4-0.5-0.6c-0.2-0.1-0.5-0.2-0.9-0.2
				c-0.5,0-1,0.2-1.4,0.5s-0.6,1-0.6,1.9v4L551.9,721L551.9,721z"/>
		</g>
	</g>
</g>
</svg>
