<?xml version="1.0" encoding="utf-8"?>
<!-- Generator: Adobe Illustrator 25.2.3, SVG Export Plug-In . SVG Version: 6.00 Build 0)  -->
<svg version="1.1" id="Lager_1" xmlns="http://www.w3.org/2000/svg" xmlns:xlink="http://www.w3.org/1999/xlink" x="0px" y="0px"
	 viewBox="0 0 800 380" style="enable-background:new 0 0 800 380;" xml:space="preserve">
<style type="text/css">
	.st0{fill:none;stroke:#404040;stroke-width:4;stroke-miterlimit:10;}
	.st1{fill:#FFFFFF;stroke:#404040;stroke-width:4;stroke-miterlimit:10;}
	.st2{fill:#59AFE1;stroke:#404040;stroke-width:4;stroke-linejoin:round;stroke-miterlimit:10;}
	.st3{fill:#4ED1A1;stroke:#404040;stroke-width:4;stroke-linecap:round;stroke-linejoin:round;stroke-miterlimit:10;}
	.st4{fill:#404040;}
	.st5{fill:none;stroke:#404040;stroke-width:4;stroke-linecap:round;stroke-linejoin:round;stroke-miterlimit:10;}
	.st6{fill:#B3E3FF;stroke:#404040;stroke-width:4;stroke-linecap:round;stroke-linejoin:round;stroke-miterlimit:10;}
	.st7{fill:#414141;}
</style>
<path class="st0" d="M475.4,147.5H531 M390.4,188.8c0,22.8-18.5,41.3-41.3,41.3 M390.4,188.8c0-22.8,18.5-41.3,41.3-41.3h43.7
	 M240.2,230.1H531"/>
<path class="st1" d="M316.9,230.1c0,11.7-9.5,21.2-21.2,21.2s-21.2-9.5-21.2-21.2s9.5-21.2,21.2-21.2S316.9,218.4,316.9,230.1z
	 M496.6,230.1c0,11.7-9.5,21.2-21.2,21.2s-21.2-9.5-21.2-21.2s9.5-21.2,21.2-21.2S496.6,218.4,496.6,230.1z M573.3,230.1
	c0,11.7-9.5,21.2-21.2,21.2s-21.2-9.5-21.2-21.2s9.5-21.2,21.2-21.2S573.3,218.4,573.3,230.1z M240.2,230.1
	c0,11.7-9.5,21.2-21.2,21.2s-21.2-9.5-21.2-21.2s9.5-21.2,21.2-21.2S240.2,218.4,240.2,230.1z"/>
<path class="st2" d="M573.3,147.5c0,11.7-9.5,21.2-21.2,21.2s-21.2-9.5-21.2-21.2s9.5-21.2,21.2-21.2S573.3,135.8,573.3,147.5z"/>
<circle class="st1" cx="475.4" cy="147.5" r="21.2"/>
<path class="st3" d="M502.1,7.4h100v50h-100L502.1,7.4z"/>
<path class="st4" d="M525.3,38.4V27.8h6.5v1.4h-5v3.4h4.5V34h-4.5v4.5h-1.5V38.4z M539.9,36.4c-0.4,1.3-1.6,2.3-3.2,2.3
	c-1.9,0-3.6-1.4-3.6-3.9c0-2.3,1.6-3.8,3.5-3.8c2.2,0,3.5,1.5,3.5,3.8v0.4h-5.4c0,1.3,1,2.2,2.2,2.2s1.8-0.6,2-1.5L539.9,36.4z
	 M538.5,34.1c0-1-0.7-1.8-2-1.8c-1.2,0-1.9,0.9-2,1.8H538.5z M544.2,34.3l2-0.3c0.4-0.1,0.6-0.3,0.6-0.5c0-0.7-0.5-1.3-1.6-1.3
	c-1,0-1.5,0.6-1.6,1.5l-1.4-0.3c0.2-1.4,1.4-2.3,3-2.3c2.2,0,3,1.2,3,2.6v3.6c0,0.6,0.1,1,0.1,1.2h-1.4c0-0.2-0.1-0.5-0.1-1
	c-0.3,0.5-1,1.2-2.3,1.2c-1.5,0-2.4-1-2.4-2.2C542.1,35.2,543,34.5,544.2,34.3L544.2,34.3z M546.8,35.4V35l-2.2,0.3
	c-0.6,0.1-1.1,0.4-1.1,1.1c0,0.5,0.5,1,1.2,1C545.8,37.5,546.8,36.9,546.8,35.4z M553,31.2h1.6v1.3H553v3.8c0,0.7,0.3,1,1,1
	c0.2,0,0.4,0,0.6-0.1v1.2c-0.1,0-0.5,0.1-1,0.1c-1.2,0-2-0.8-2-2.1v-4h-1.4v-1.3h0.4c0.8,0,1.1-0.5,1.1-1.1v-1h1.3L553,31.2
	L553,31.2z M559.8,38.7c-1.7,0-2.7-1.3-2.7-2.9v-4.5h1.4v4.3c0,1,0.4,1.9,1.6,1.9c1.1,0,1.7-0.8,1.7-1.8v-4.4h1.4v5.9
	c0,0.6,0,1.1,0.1,1.3H562c0-0.2-0.1-0.6-0.1-0.9C561.5,38.3,560.6,38.7,559.8,38.7L559.8,38.7z M570.4,32.7h-0.6c-1.2,0-2,0.6-2,2.2
	v3.6h-1.4v-7.2h1.4v1.3c0.5-1.1,1.4-1.4,2.2-1.4h0.5v1.5L570.4,32.7z M578.9,36.4c-0.4,1.3-1.6,2.3-3.2,2.3c-1.9,0-3.6-1.4-3.6-3.9
	c0-2.3,1.6-3.8,3.4-3.8c2.2,0,3.5,1.5,3.5,3.8v0.4h-5.4c0,1.3,1,2.2,2.2,2.2s1.8-0.6,2-1.5L578.9,36.4z M577.5,34.1
	c0-1-0.7-1.8-2-1.8c-1.2,0-1.9,0.9-2,1.8H577.5z"/>
<path class="st5" d="M552.1,103.3V79.8 M563,94.6l-10.9,10.8l-10.9-10.8"/>
<path class="st5" d="M550.1,274.9v23.5 M539.2,283.6l10.9-10.8l10.9,10.8"/>
<g>
	<path class="st6" d="M502.2,321.4h96.2v50h-96.2V321.4z"/>
	<g>
		<path class="st7" d="M535.1,352.5v-10h2l2.4,7.1c0.2,0.7,0.4,1.2,0.5,1.5c0.1-0.4,0.3-0.9,0.5-1.6l2.4-7h1.8v10h-1.3v-8.4
			l-2.9,8.4h-1.2l-2.9-8.5v8.5H535.1z"/>
		<path class="st7" d="M552.1,351.6c-0.5,0.4-0.9,0.7-1.3,0.8c-0.4,0.2-0.9,0.2-1.4,0.2c-0.8,0-1.4-0.2-1.8-0.6
			c-0.4-0.4-0.6-0.9-0.6-1.5c0-0.4,0.1-0.7,0.2-1c0.2-0.3,0.4-0.5,0.6-0.7c0.3-0.2,0.6-0.3,0.9-0.4c0.2-0.1,0.6-0.1,1.1-0.2
			c1-0.1,1.7-0.3,2.2-0.4c0-0.2,0-0.3,0-0.3c0-0.5-0.1-0.9-0.3-1.1c-0.3-0.3-0.8-0.4-1.4-0.4c-0.6,0-1,0.1-1.3,0.3
			c-0.3,0.2-0.5,0.6-0.6,1.1l-1.2-0.2c0.1-0.5,0.3-0.9,0.5-1.2c0.3-0.3,0.6-0.6,1.1-0.7c0.5-0.2,1-0.3,1.6-0.3s1.1,0.1,1.5,0.2
			s0.7,0.3,0.9,0.6c0.2,0.2,0.3,0.5,0.4,0.8c0,0.2,0.1,0.6,0.1,1.1v1.6c0,1.1,0,1.9,0.1,2.2s0.2,0.6,0.3,0.9h-1.3
			C552.2,352.3,552.1,352,552.1,351.6z M552,348.9c-0.4,0.2-1.1,0.3-2,0.5c-0.5,0.1-0.9,0.2-1.1,0.2c-0.2,0-0.4,0.2-0.5,0.4
			c-0.1,0.2-0.2,0.4-0.2,0.6c0,0.3,0.1,0.6,0.4,0.8c0.2,0.2,0.6,0.3,1.1,0.3s0.9-0.1,1.3-0.3c0.4-0.2,0.6-0.5,0.8-0.9
			c0.1-0.3,0.2-0.7,0.2-1.2V348.9L552,348.9z"/>
		<path class="st7" d="M555.8,343.9v-1.4h1.2v1.4H555.8z M555.8,352.5v-7.3h1.2v7.3H555.8z"/>
		<path class="st7" d="M559.6,352.5v-7.3h1.1v1c0.5-0.8,1.3-1.2,2.3-1.2c0.4,0,0.8,0.1,1.2,0.2c0.4,0.2,0.6,0.4,0.8,0.6
			s0.3,0.6,0.4,0.9c0,0.2,0.1,0.6,0.1,1.2v4.5h-1.2V348c0-0.5,0-0.9-0.1-1.1c-0.1-0.2-0.3-0.4-0.5-0.6c-0.2-0.1-0.5-0.2-0.9-0.2
			c-0.5,0-1,0.2-1.4,0.5c-0.4,0.3-0.6,1-0.6,1.9v4L559.6,352.5L559.6,352.5z"/>
	</g>
</g>
</svg>
